<svg width="22" height="16" viewBox="0 0 22 16" fill="none" xmlns="http://www.w3.org/2000/svg">
<path d="M0 0.5C0 0.223858 0.447715 0 1 0H21C21.5523 0 22 0.223858 22 0.5V1.5C22 1.77614 21.5523 2 21 2H1C0.447716 2 0 1.77614 0 1.5V0.5Z" fill="white"/>
<path d="M0 7.5C0 7.22386 0.447715 7 1 7H21C21.5523 7 22 7.22386 22 7.5V8.5C22 8.77614 21.5523 9 21 9H1C0.447716 9 0 8.77614 0 8.5V7.5Z" fill="white"/>
<path d="M0 14.5C0 14.2239 0.447715 14 1 14H21C21.5523 14 22 14.2239 22 14.5V15.5C22 15.7761 21.5523 16 21 16H1C0.447716 16 0 15.7761 0 15.5V14.5Z" fill="white"/>
</svg>
