<svg width="56" height="59" viewBox="0 0 56 59" fill="none" xmlns="http://www.w3.org/2000/svg">
<path d="M55.1902 28.5189C55.1902 43.0332 43.3915 54.7908 28.8378 54.7908C14.2841 54.7908 2.48535 43.0261 2.48535 28.5189C2.48535 14.0118 14.2841 2.24707 28.8378 2.24707C43.3915 2.24707 55.1902 14.0118 55.1902 28.5189Z" fill="white"/>
<path d="M28.8378 54.7908C43.3918 54.7908 55.1902 43.0285 55.1902 28.5189C55.1902 14.0094 43.3918 2.24707 28.8378 2.24707C14.2837 2.24707 2.48535 14.0094 2.48535 28.5189C2.48535 43.0285 14.2837 54.7908 28.8378 54.7908Z" stroke="#0B0907" stroke-width="0.417" stroke-miterlimit="10"/>
<path d="M54.0867 28.0175C54.0867 42.5318 42.2879 54.2893 27.7343 54.2893C13.1806 54.2893 1.38184 42.5246 1.38184 28.0175C1.38184 13.5103 13.1806 1.74561 27.7343 1.74561C42.2879 1.74561 54.0867 13.5103 54.0867 28.0175Z" fill="#0B0907"/>
<path d="M52.8464 27.008C52.8464 41.5223 41.0477 53.2799 26.494 53.2799C11.9403 53.2799 0.141602 41.5152 0.141602 27.008C0.141602 12.5009 11.9403 0.729004 26.494 0.729004C41.0477 0.729004 52.8464 12.4937 52.8464 27.008Z" fill="#D5221C"/>
<path d="M7.27413 18.5803C7.35346 18.4156 7.51933 18.3297 7.60588 18.1864C7.91599 17.6924 8.37755 17.4274 8.92566 17.2914C9.50983 17.141 9.99303 17.3343 10.3248 17.8857C10.606 18.3511 10.7791 18.8738 11.0532 19.3393C11.2551 19.6687 11.5292 19.9622 11.8104 20.2415C12.0701 20.4993 12.3081 20.3776 12.4739 20.0983C12.5533 19.9622 12.6326 19.8119 12.6687 19.6615C12.8345 19.0027 13.2672 18.6018 13.873 18.3297C14.3995 18.0934 14.6952 18.1363 14.9044 18.6805C15.2361 19.5756 15.6328 20.4778 15.7554 21.4087C15.9861 23.1773 16.0583 24.9603 16.1664 26.7432C16.2025 27.3232 16.0727 27.4092 15.4957 27.3877C14.1038 27.3376 14.0822 27.3376 13.9091 25.9484C13.837 25.3684 13.8803 24.7741 13.8586 24.1869C13.8226 23.1701 13.7721 22.1534 13.7216 21.1366C13.7144 21.0292 13.6928 20.8931 13.6278 20.8215C13.4836 20.6711 13.3033 20.5494 13.1374 20.4134C13.0293 20.5924 12.8706 20.7571 12.8345 20.9504C12.7696 21.2583 12.8201 21.5877 12.7624 21.9027C12.6398 22.5543 12.135 22.7334 11.7095 22.225C11.2695 21.7094 10.9522 21.0864 10.5772 20.5136C10.4907 20.3776 10.3825 20.263 10.2238 20.0625C10.1661 20.2487 10.1084 20.3346 10.1084 20.4205C10.1373 21.9815 10.1301 23.5497 10.2238 25.1035C10.2599 25.705 10.5267 26.2993 10.7142 26.8936C10.8873 27.4306 10.7214 27.6884 10.1661 27.6025C8.78863 27.3877 8.19004 26.9222 8.05302 25.6548C7.89435 24.2156 7.79339 22.7692 7.63472 21.3227C7.58424 20.9074 7.41837 20.4993 7.29576 20.0911C7.28134 20.041 7.27413 19.998 7.27413 19.9479C7.26692 19.461 7.22364 18.7664 7.27413 18.5803Z" fill="#0B0907"/>
<path d="M48.2235 37.6201C47.8845 37.885 47.56 38.1714 47.1994 38.3862C46.8388 38.6011 46.4205 38.7299 46.0238 38.8875C45.7426 39.002 45.4613 39.1023 45.18 39.2169C45.1079 39.2455 45.1007 39.3028 44.9637 39.3099C43.8963 39.3959 42.8001 39.3314 41.9275 38.5151C41.6173 38.2215 41.2423 37.9924 40.9322 37.6917C40.7519 37.5127 40.5283 37.2549 40.5355 37.0329C40.5428 36.0806 40.4923 35.1067 40.7086 34.1902C41.3072 31.5981 43.5501 31.1613 45.5046 31.8201C46.5359 32.1709 47.3292 32.8225 47.6105 33.9396C47.7763 34.5912 47.6177 34.8991 46.9686 35.0996C46.0527 35.386 45.1296 35.6509 44.2064 35.9087C43.5501 36.0877 43.3626 36.5818 43.7449 37.1546C44.567 38.3791 46.0743 38.4722 47.0407 37.3623C47.2427 37.1332 47.4374 36.8825 47.6898 36.7536C48.2235 36.4457 48.7067 37.2406 48.2235 37.6201ZM43.9179 35.0495C44.4156 35.0423 44.9709 34.9707 45.1296 34.4695C45.2233 34.1687 45.0646 33.7104 44.8699 33.424C44.7257 33.2235 44.3074 33.0732 44.055 33.1233C43.8314 33.1662 43.6223 33.4885 43.4852 33.7319C43.3843 33.9109 43.4203 34.1687 43.3771 34.3907C43.2761 34.9349 43.3698 35.0566 43.9179 35.0495Z" fill="#0B0907"/>
<path d="M38.9921 14.9424C38.8839 15.6799 38.7973 16.4246 38.6603 17.1621C38.6098 17.4199 38.4656 17.6634 38.3214 17.8853C38.2637 17.9713 38.0834 17.9784 37.9608 18.0214C37.9608 17.9068 37.9463 17.7851 37.968 17.6705C38.1771 16.8542 38.4007 16.0379 38.6171 15.2216C38.6387 15.1357 38.617 15.0355 38.6098 14.9424H38.9921Z" fill="#0B0907"/>
<path d="M32.0109 27.2298C32.0109 27.6595 32.0181 28.0891 32.0037 28.5187C31.9965 28.6333 31.9243 28.7478 31.8811 28.8624C31.7512 28.8123 31.5565 28.798 31.5133 28.712C31.3546 28.4185 31.2031 28.1034 31.1382 27.774C31.0373 27.2441 31.4267 26.6355 30.7488 26.1701C30.6406 26.0985 30.4387 26.0627 30.3089 26.0913C29.9338 26.1844 29.6237 26.4207 29.2992 26.6355C29.1766 26.7143 29.0828 26.8217 28.9674 26.9076C28.3544 27.3587 27.7126 27.8241 26.8976 27.5234C26.0033 27.194 25.4336 26.4493 25.4336 25.5543C25.4408 23.6639 25.7798 21.838 27.3736 20.5204C28.2535 19.7901 29.3569 19.7113 30.4603 19.5466C30.5324 19.5323 30.6118 19.5036 30.6695 19.4607C31.2031 19.117 31.4916 19.0454 31.6936 19.4464C31.8594 19.7757 32.0181 20.098 31.7801 20.4775C31.6863 20.6278 31.6647 20.8427 31.6719 21.0288C31.7296 22.4466 31.7945 23.8572 31.8811 25.2678C31.9171 25.9195 31.9892 26.5711 32.0542 27.2155C32.0325 27.2227 32.0253 27.2298 32.0109 27.2298ZM28.5131 23.2701C28.5059 23.3417 28.5131 23.4133 28.5347 23.4849C28.5924 23.6925 28.6718 23.9933 28.8088 24.2582C28.9602 24.5446 29.804 24.7666 30.0781 24.6449C30.4964 24.4587 30.28 24.1007 30.28 23.7999C30.2872 23.6424 30.28 23.4777 30.2728 23.3202C30.2295 22.733 30.2367 22.1387 30.1286 21.5587C30.0204 20.9787 29.6958 20.9071 29.2343 21.2938C28.6645 21.7807 28.6068 22.4538 28.5131 23.2701Z" fill="#0B0907"/>
<path d="M34.3113 37.6058C34.3258 37.6845 34.333 37.7705 34.3041 37.8421C34.0734 38.4149 33.7632 38.9376 33.1863 39.2312C32.6598 39.4961 32.2271 39.3028 32.1766 38.7085C32.0901 37.6129 32.0612 36.5174 32.0107 35.4218C31.9891 34.8991 32.018 34.3692 31.9314 33.8608C31.7655 32.8225 32.5084 31.6411 33.5397 31.3905C33.7993 31.326 33.994 31.3332 34.1383 31.5766C34.2392 31.7628 34.5205 31.8559 34.7224 31.7986C35.2633 31.6554 35.797 31.5122 36.3091 31.9418C36.374 31.9919 36.5903 31.8774 36.7346 31.8201C37.1529 31.6554 37.5495 31.4191 37.975 31.326C38.6601 31.19 39.3813 31.6769 39.4895 32.4216C39.6121 33.2307 39.5977 34.0685 39.6121 34.8919C39.6193 35.3359 39.54 35.7798 39.5184 36.2309C39.5112 36.367 39.5039 36.5675 39.5833 36.6391C39.9871 36.9828 39.7419 37.2621 39.5256 37.5342C39.1794 37.9709 38.826 38.4077 38.451 38.823C38.1914 39.1095 37.8957 39.3959 37.4558 39.2312C36.9942 39.0593 36.886 38.6512 36.9653 38.243C37.0879 37.5771 37.1961 36.8825 37.4774 36.2739C37.9894 35.1425 37.9534 33.9754 37.9245 32.8011C37.9245 32.6937 37.7731 32.4932 37.701 32.4932C37.5711 32.5003 37.3692 32.6077 37.3404 32.708C37.261 33.0087 37.2682 33.3381 37.2033 33.646C37.124 34.047 37.0663 34.4623 36.8932 34.8275C36.7273 35.1784 36.4749 35.1426 36.3235 34.7702C36.2009 34.4766 36.1576 34.1544 36.0999 33.8465C35.9773 33.2307 35.6528 32.8584 35.2273 32.8512C34.7441 32.844 34.2392 33.3309 34.1455 33.9038C34.1383 33.9682 34.1311 34.0327 34.1311 34.0971C34.1311 34.5912 34.1311 35.0853 34.1311 35.5793" fill="#0B0907"/>
<path d="M20.8252 27.6024C20.3997 27.5594 20.0463 27.538 19.7002 27.495C19.116 27.4234 18.5895 27.2301 18.1568 26.7861C17.8683 26.4925 17.4933 26.2777 17.2048 25.9841C17.0173 25.7908 16.7937 25.5115 16.801 25.2752C16.837 23.6641 16.8082 22.0029 17.7024 20.5851C17.7601 20.492 17.8539 20.4204 17.9549 20.3775C20.0175 19.5325 22.0512 19.6185 23.4215 21.2869C23.4504 21.3155 23.472 21.3585 23.4864 21.3871C24.186 22.719 24.0778 23.1557 22.9527 23.4636C21.9935 23.7286 21.0416 24.015 20.0896 24.3086C19.7723 24.4088 19.628 24.731 19.7723 25.0318C20.5079 26.6286 22.2315 26.872 23.2917 25.6548C23.4792 25.4399 23.6667 25.1965 23.9047 25.0533C24.0489 24.9745 24.3518 25.0103 24.4817 25.1106C24.5826 25.1965 24.6187 25.5259 24.5394 25.6404C24.0562 26.335 23.4071 26.8506 22.5921 27.1298C22.1738 27.2802 21.7483 27.4162 21.3228 27.538C21.1425 27.6024 20.9478 27.5952 20.8252 27.6024ZM20.2122 23.3706C20.6233 23.3276 21.1714 23.3061 21.3445 22.8192C21.4527 22.5185 21.3373 22.053 21.157 21.7666C21.0271 21.559 20.6089 21.4014 20.3492 21.4372C20.1184 21.4659 19.8804 21.7738 19.7506 22.0101C19.6352 22.2177 19.6569 22.5041 19.628 22.7619C19.5559 23.2417 19.6713 23.3706 20.2122 23.3706Z" fill="#0B0907"/>
<path d="M38.2923 25.7619C39.0135 25.7619 39.7347 25.7619 40.4559 25.7619C40.5497 25.7619 40.6723 25.7333 40.7372 25.7834C40.9319 25.9051 41.105 26.0483 41.2925 26.1915C41.1338 26.3491 40.9896 26.6068 40.8093 26.6355C39.8357 26.8145 38.8549 26.9935 37.8668 27.0723C36.9509 27.1439 36.0061 27.2799 35.1047 26.8718C35.0181 26.8288 34.8234 26.9935 34.6864 27.0794C34.4195 27.2441 34.1383 27.5878 33.9003 27.5592C33.4748 27.5091 33.4603 27.0436 33.4026 26.6784C33.0348 24.516 33.143 22.3463 33.4171 20.1982C33.5613 19.0668 33.9508 17.9068 35.1984 17.377C35.3282 17.3197 35.523 17.2982 35.6383 17.3555C35.7177 17.3984 35.7682 17.6276 35.7249 17.735C35.2633 19.117 35.6167 20.5491 35.4653 21.9597C35.3571 23.0051 35.3859 24.0649 35.3787 25.1103C35.3787 25.6688 35.5085 25.7691 36.0711 25.7762C36.8067 25.7834 37.5495 25.7762 38.2851 25.7762C38.2923 25.7691 38.2923 25.7691 38.2923 25.7619Z" fill="#0B0907"/>
<path d="M23.8404 35.1494C23.7972 36.1304 23.7034 37.1042 23.7827 38.0852C23.7827 38.121 23.79 38.1496 23.7972 38.1783C23.8837 38.522 23.9991 39.2094 23.5159 39.2595C23.2923 39.281 23.0111 39.0304 22.8091 38.8442C22.701 38.744 22.6937 38.522 22.6793 38.3501C22.5711 36.7319 22.4557 35.1064 22.3908 33.4882C22.3692 32.9511 22.6144 32.3854 22.7082 31.8771C22.7514 31.6408 22.6144 31.3758 22.3908 31.2899C21.9004 31.0894 21.3667 31.0321 20.8403 30.9462C20.5157 30.8961 19.9748 30.3161 19.9388 29.9652C19.9027 29.6 20.1696 29.242 20.6672 29.1489C21.3956 29.0057 22.1096 28.8553 22.8596 29.2348C23.725 29.6716 24.6554 29.7217 25.629 29.4496C26.141 29.3064 26.7036 29.3351 27.2445 29.3422C27.5979 29.3494 27.6988 29.5857 27.5257 29.9008C27.1796 30.5094 26.718 31.0106 26.0617 31.3114C25.8598 31.4045 25.6506 31.519 25.4992 31.6766C25.3333 31.8484 25.0737 31.8985 24.8645 31.7983C24.403 31.5691 24.1073 31.7338 24.0496 32.1706" fill="#0B0907"/>
<path d="M28.3184 34.7914C28.3256 33.3306 29.2126 32.4785 30.4026 32.6289C30.7632 32.6719 30.9579 32.9941 30.8281 33.3306C30.7488 33.5383 30.6695 33.7746 30.6695 33.9966C30.6695 35.5074 30.6911 37.0183 30.7055 38.5292C30.7127 38.9445 30.4242 39.1664 30.0853 39.2953C29.7103 39.4385 29.3857 39.2667 29.2343 38.9445C28.9819 38.4146 28.7294 37.8632 28.6213 37.2975C28.4482 36.4168 28.3977 35.5217 28.3184 34.7914Z" fill="#0B0907"/>
<path d="M28.42 29.9796C28.4273 29.3352 28.8095 28.927 29.4153 28.9342C30.0355 28.9413 30.4394 29.2349 30.425 29.6574C30.4033 30.2374 29.7687 30.8675 29.1989 30.8747C28.7229 30.8818 28.4128 30.5238 28.42 29.9796Z" fill="#0B0907"/>
<path d="M44.9998 19.4468C44.8989 20.349 42.9805 21.5448 42.3242 21.1868C43.2401 20.5925 44.12 20.0196 44.9998 19.4468Z" fill="#0B0907"/>
<path d="M47.8056 26.3136C47.6108 26.4067 47.5171 26.4855 47.4161 26.4926C46.6877 26.5571 45.9521 26.6144 45.2237 26.643C45.0506 26.6502 44.8559 26.5427 44.69 26.4568C44.6323 26.4282 44.5962 26.2921 44.6035 26.2134C44.6035 26.1704 44.7188 26.106 44.7838 26.106C45.6925 26.1131 46.6012 26.1346 47.5171 26.1561C47.582 26.1632 47.6469 26.2277 47.8056 26.3136Z" fill="#0B0907"/>
<path d="M6.69013 18.1076C6.76946 17.9429 6.93534 17.857 7.02188 17.7138C7.33199 17.2197 7.79356 16.9548 8.34166 16.8187C8.92583 16.6684 9.40903 16.8617 9.74078 17.413C10.022 17.8785 10.1951 18.4012 10.4692 18.8666C10.6711 19.196 10.9452 19.4896 11.2264 19.7688C11.4861 20.0266 11.7241 19.9049 11.8899 19.6256C11.9693 19.4896 12.0486 19.3392 12.0847 19.1888C12.2505 18.5301 12.6832 18.1291 13.2891 17.857C13.8155 17.6207 14.1112 17.6637 14.3204 18.2079C14.6521 19.1029 15.0488 20.0051 15.1714 20.936C15.4021 22.7046 15.4743 24.4876 15.5824 26.2706C15.6185 26.8506 15.4887 26.9365 14.9117 26.915C13.5198 26.8649 13.4982 26.8649 13.3251 25.4758C13.253 24.8958 13.2963 24.3014 13.2746 23.7143C13.2386 22.6975 13.1881 21.6807 13.1376 20.6639C13.1304 20.5565 13.1088 20.4205 13.0438 20.3488C12.8996 20.1985 12.7193 20.0767 12.5534 19.9407C12.4453 20.1197 12.2866 20.2844 12.2505 20.4777C12.1856 20.7856 12.2361 21.115 12.1784 21.4301C12.0558 22.0817 11.551 22.2607 11.1255 21.7523C10.6855 21.2367 10.3682 20.6138 9.9932 20.0409C9.90665 19.9049 9.79848 19.7903 9.63981 19.5898C9.58212 19.776 9.52442 19.8619 9.52442 19.9479C9.55327 21.5088 9.54606 23.077 9.63981 24.6308C9.67587 25.2323 9.94271 25.8266 10.1302 26.4209C10.3033 26.958 10.1374 27.2158 9.58212 27.1298C8.20464 26.915 7.60605 26.4496 7.46902 25.1822C7.31036 23.7429 7.20939 22.2965 7.05073 20.8501C7.00024 20.4348 6.83437 20.0266 6.71177 19.6185C6.69734 19.5684 6.69013 19.5254 6.69013 19.4753C6.69013 18.9955 6.64686 18.3009 6.69013 18.1076Z" fill="white"/>
<path d="M47.6463 37.1474C47.3074 37.4124 46.9828 37.6988 46.6222 37.9136C46.2616 38.1284 45.8433 38.2573 45.4467 38.4148C45.1654 38.5294 44.8841 38.6296 44.6029 38.7442C44.5308 38.7729 44.5236 38.8301 44.3865 38.8373C43.3192 38.9232 42.2229 38.8588 41.3503 38.0425C41.0402 37.7489 40.6652 37.5198 40.3551 37.219C40.1748 37.04 39.9512 36.7822 39.9584 36.5603C39.9656 35.6079 39.9151 34.6341 40.1315 33.7175C40.7301 31.1254 42.973 30.6887 44.9274 31.3474C45.9587 31.6983 46.752 32.3499 47.0333 33.4669C47.1992 34.1185 47.0405 34.4264 46.3914 34.6269C45.4755 34.9133 44.5524 35.1783 43.6293 35.4361C42.973 35.6151 42.7855 36.1091 43.1677 36.682C43.9899 37.9064 45.4972 37.9995 46.4636 36.8896C46.6655 36.6605 46.8602 36.4099 47.1126 36.281C47.6391 35.9803 48.1295 36.7679 47.6463 37.1474ZM43.3408 34.5768C43.8384 34.5696 44.3937 34.498 44.5524 33.9968C44.6462 33.6961 44.4875 33.2378 44.2928 32.9514C44.1485 32.7509 43.7302 32.6005 43.4778 32.6506C43.2543 32.6936 43.0451 33.0158 42.9081 33.2593C42.8071 33.4383 42.8432 33.6961 42.7999 33.918C42.6917 34.4694 42.7927 34.584 43.3408 34.5768Z" fill="white"/>
<path d="M38.4081 14.4702C38.2999 15.2077 38.2134 15.9524 38.0763 16.69C38.0259 16.9477 37.8816 17.1912 37.7374 17.4132C37.6797 17.4991 37.4994 17.5063 37.3768 17.5492C37.3768 17.4347 37.3624 17.3129 37.384 17.1984C37.5931 16.3821 37.8167 15.5658 38.0331 14.7495C38.0547 14.6636 38.0331 14.5633 38.0259 14.4702H38.4081Z" fill="white"/>
<path d="M31.4273 26.7572C31.4273 27.1868 31.4345 27.6164 31.4201 28.0461C31.4128 28.1606 31.3407 28.2752 31.2975 28.3898C31.1676 28.3396 30.9729 28.3253 30.9224 28.2394C30.7638 27.9458 30.6123 27.6307 30.5474 27.3014C30.4464 26.7715 30.8359 26.1628 30.158 25.6974C30.0498 25.6258 29.8479 25.59 29.718 25.6186C29.343 25.7117 29.0329 25.948 28.7084 26.1628C28.5858 26.2416 28.492 26.349 28.3766 26.4349C27.7636 26.8861 27.1217 27.3515 26.3068 27.0507C25.4125 26.7214 24.8428 25.9767 24.8428 25.0816C24.85 23.1912 25.1889 21.3653 26.7828 20.0478C27.6626 19.3174 28.7661 19.2386 29.8695 19.074C29.9416 19.0596 30.0209 19.031 30.0786 18.988C30.6123 18.6443 30.9008 18.5727 31.1027 18.9737C31.2686 19.3031 31.4273 19.6253 31.1893 20.0048C31.0955 20.1552 31.0739 20.37 31.0811 20.5562C31.1388 21.974 31.2037 23.3846 31.2902 24.7952C31.3263 25.4468 31.3984 26.0984 31.4633 26.7428C31.4561 26.7572 31.4417 26.7572 31.4273 26.7572ZM27.9295 22.7974C27.9223 22.869 27.9295 22.9406 27.9511 23.0122C28.0088 23.2199 28.0881 23.5206 28.2252 23.7856C28.3766 24.072 29.2204 24.294 29.4945 24.1722C29.9128 23.9861 29.6964 23.628 29.6964 23.3273C29.7036 23.1698 29.6964 23.0051 29.6892 22.8475C29.6459 22.2604 29.6531 21.6661 29.545 21.0861C29.4368 20.5061 29.1122 20.4344 28.6507 20.8211C28.0881 21.308 28.0305 21.9883 27.9295 22.7974Z" fill="white"/>
<path d="M33.7352 37.1399C33.7496 37.2187 33.7568 37.3046 33.728 37.3762C33.4972 37.9491 33.1871 38.4718 32.6101 38.7654C32.0836 39.0303 31.6509 38.837 31.6004 38.2427C31.5067 37.1471 31.4851 36.0515 31.4346 34.956C31.4129 34.4333 31.4418 33.9034 31.3552 33.395C31.1894 32.3567 31.9322 31.1752 32.9635 30.9246C33.2231 30.8602 33.4178 30.8673 33.5621 31.1108C33.6631 31.297 33.9443 31.3901 34.1463 31.3328C34.6871 31.1896 35.2208 31.0464 35.7329 31.476C35.7978 31.5261 36.0141 31.4115 36.1584 31.3543C36.5767 31.1896 36.9661 30.9533 37.3988 30.8602C38.084 30.7241 38.8052 31.211 38.9133 31.9557C39.0359 32.7649 39.0215 33.6027 39.036 34.4261C39.0432 34.8701 38.9638 35.314 38.9422 35.7651C38.935 35.9012 38.9278 36.1017 39.0071 36.1733C39.411 36.517 39.1658 36.7962 38.9494 37.0683C38.6032 37.5051 38.2498 37.9419 37.8748 38.3572C37.6152 38.6436 37.3195 38.9301 36.8796 38.7654C36.418 38.5935 36.3098 38.1854 36.3892 37.7772C36.5118 37.1113 36.62 36.4167 36.9012 35.8081C37.4133 34.6767 37.3772 33.5096 37.3484 32.3352C37.3484 32.2278 37.1969 32.0273 37.1248 32.0273C36.995 32.0345 36.793 32.1419 36.7642 32.2422C36.6849 32.5429 36.6921 32.8723 36.6272 33.1802C36.5478 33.5812 36.4901 33.9965 36.317 34.3617C36.1512 34.7125 35.8988 34.6767 35.7473 34.3044C35.6247 34.0108 35.5814 33.6886 35.5237 33.3807C35.4011 32.7649 35.0766 32.3925 34.6511 32.3854C34.1679 32.3782 33.6631 32.8651 33.5693 33.438C33.5621 33.5024 33.5549 33.5668 33.5549 33.6313C33.5549 34.1254 33.5549 34.6194 33.5549 35.1135" fill="white"/>
<path d="M20.2481 27.1371C19.8226 27.0941 19.4692 27.0726 19.123 27.0297C18.5388 26.9581 18.0124 26.7647 17.5796 26.3208C17.2912 26.0272 16.9161 25.8124 16.6277 25.5188C16.4402 25.3255 16.2166 25.0462 16.2238 24.8099C16.2599 23.1988 16.231 21.5376 17.1253 20.1198C17.183 20.0267 17.2767 19.9551 17.3777 19.9121C19.4403 19.0672 21.4741 19.1531 22.8444 20.8215C22.8732 20.8502 22.8948 20.8931 22.9093 20.9218C23.6088 22.2536 23.5006 22.6904 22.3756 22.9983C21.4164 23.2632 20.4644 23.5497 19.5124 23.8432C19.1951 23.9435 19.0509 24.2657 19.1951 24.5665C19.9307 26.1632 21.6544 26.4067 22.7145 25.1894C22.9021 24.9746 23.0896 24.7311 23.3276 24.5879C23.4718 24.5092 23.7747 24.545 23.9045 24.6452C24.0055 24.7311 24.0415 25.0605 23.9622 25.1751C23.479 25.8697 22.8299 26.3781 22.015 26.6645C21.5967 26.8149 21.1712 26.9509 20.7457 27.0726C20.5654 27.1299 20.3635 27.1228 20.2481 27.1371ZM19.6278 22.9052C20.0389 22.8623 20.587 22.8408 20.7601 22.3539C20.8683 22.0531 20.7529 21.5877 20.5726 21.3013C20.4428 21.0936 20.0245 20.9361 19.7649 20.9719C19.5341 21.0005 19.2961 21.3084 19.1663 21.5447C19.0509 21.7524 19.0725 22.0388 19.0437 22.2966C18.9788 22.7692 19.0942 22.9052 19.6278 22.9052Z" fill="white"/>
<path d="M37.7162 25.2897C38.4374 25.2897 39.1586 25.2897 39.8797 25.2897C39.9735 25.2897 40.0961 25.2611 40.161 25.3112C40.3557 25.4329 40.5288 25.5761 40.7163 25.7194C40.5577 25.8769 40.4134 26.1347 40.2331 26.1633C39.2595 26.3423 38.2787 26.5213 37.2907 26.6001C36.3747 26.6717 35.43 26.8078 34.5285 26.3996C34.4419 26.3566 34.2472 26.5213 34.1102 26.6073C33.8434 26.7719 33.5621 27.1157 33.3241 27.087C32.8986 27.0369 32.8842 26.5715 32.8265 26.2063C32.4587 24.0438 32.5668 21.8742 32.8409 19.726C32.9851 18.5947 33.3746 17.4347 34.6222 16.9048C34.7521 16.8475 34.9468 16.826 35.0622 16.8833C35.1415 16.9263 35.192 17.1554 35.1487 17.2628C34.6727 18.6448 35.0189 20.084 34.8674 21.4947C34.7593 22.5401 34.7881 23.5999 34.7809 24.6453C34.7809 25.2038 34.9107 25.304 35.4733 25.3112C36.2089 25.3184 36.9517 25.3112 37.6873 25.3112C37.7162 25.304 37.7162 25.2969 37.7162 25.2897Z" fill="white"/>
<path d="M23.2555 34.6841C23.2122 35.6651 23.1185 36.6389 23.1978 37.6199C23.1978 37.6557 23.205 37.6843 23.2122 37.713C23.2987 38.0567 23.4141 38.7441 22.9309 38.7942C22.7074 38.8157 22.4261 38.5651 22.2242 38.3789C22.116 38.2786 22.1088 38.0567 22.0944 37.8848C21.9862 36.2665 21.8708 34.6411 21.8059 33.0228C21.7842 32.4858 22.0294 31.9201 22.1232 31.4117C22.1665 31.1754 22.0294 30.9105 21.8059 30.8246C21.3155 30.6241 20.7818 30.5668 20.2553 30.4809C19.9308 30.4307 19.3899 29.8507 19.3538 29.4999C19.3178 29.1347 19.5846 28.7767 20.0822 28.6836C20.8106 28.5404 21.5246 28.39 22.2747 28.7695C23.1401 29.2063 24.0704 29.2564 25.044 28.9843C25.5561 28.8411 26.1186 28.8697 26.6595 28.8769C27.0129 28.8841 27.1139 29.1204 26.9408 29.4354C26.5946 30.0441 26.133 30.5453 25.4768 30.846C25.2748 30.9391 25.0657 31.0537 24.9142 31.2112C24.7483 31.3831 24.4887 31.4332 24.2796 31.333C23.818 31.1038 23.5223 31.2685 23.4646 31.7053" fill="white"/>
<path d="M27.7344 34.3187C27.7416 32.858 28.6287 32.0059 29.8186 32.1562C30.1792 32.1992 30.3739 32.5214 30.2441 32.858C30.1648 33.0656 30.0855 33.3019 30.0855 33.5239C30.0855 35.0348 30.1071 36.5456 30.1215 38.0565C30.1287 38.4718 29.8403 38.6938 29.5013 38.8227C29.1263 38.9659 28.8017 38.794 28.6503 38.4718C28.3979 37.9419 28.1455 37.3906 28.0373 36.8249C27.8714 35.9513 27.8209 35.0562 27.7344 34.3187Z" fill="white"/>
<path d="M27.835 29.5143C27.8422 28.8698 28.2244 28.4617 28.8302 28.4688C29.4504 28.476 29.8543 28.7696 29.8399 29.1921C29.8182 29.7721 29.1836 30.4022 28.6138 30.4093C28.1451 30.4165 27.835 30.0585 27.835 29.5143Z" fill="white"/>
<path d="M44.4227 18.981C44.3217 19.8832 42.4034 21.079 41.7471 20.721C42.663 20.1195 43.5428 19.5538 44.4227 18.981Z" fill="white"/>
<path d="M47.2216 25.841C47.0269 25.934 46.9331 26.0128 46.8321 26.02C46.1037 26.0844 45.3681 26.1417 44.6397 26.1703C44.4666 26.1775 44.2719 26.0701 44.106 25.9842C44.0483 25.9555 44.0123 25.8195 44.0195 25.7407C44.0195 25.6977 44.1349 25.6333 44.1998 25.6333C45.1085 25.6405 46.0172 25.6619 46.9331 25.6834C46.998 25.6906 47.0629 25.755 47.2216 25.841Z" fill="white"/>
<path d="M17.0612 50.8026L16.6645 51.4041C16.8809 51.49 17.3425 51.9125 17.3713 52.3278C17.6021 52.1989 18.7055 51.6905 18.7704 51.6834C18.9291 51.6547 19.0084 51.8194 19.0373 51.9841C19.0445 52.0056 17.8184 52.693 17.4074 52.9651C17.0972 53.9604 16.8088 54.4616 16.203 55.4498C15.5972 56.4451 14.2702 57.7841 13.7221 57.913C13.2461 58.0275 12.972 57.6838 12.9215 57.3903C12.5826 55.3066 15.0202 53.8816 16.7222 52.7073C16.7366 52.5641 16.6573 52.3708 16.6357 52.2633C16.6285 52.2347 16.4265 52.0056 16.1885 51.8982C16.0155 51.8122 15.9289 51.7621 15.9073 51.6475C15.9001 51.5473 16.0804 51.3611 16.3905 50.8957C16.6285 50.5448 16.8665 50.0794 16.8232 49.7787C16.7943 49.6498 16.6645 49.4779 16.5347 49.5066C16.3256 49.5495 16.1381 49.6641 15.8352 49.929C15.3664 50.3515 14.9625 50.7596 14.775 50.7811C14.5586 50.8098 14.4433 50.7382 14.4072 50.5377C14.3856 50.2799 15.251 49.614 15.4673 49.4278C15.8279 49.1271 16.376 48.8764 16.5131 48.8478C16.953 48.7619 17.3352 49.1557 17.3929 49.6211C17.429 50.0221 17.2271 50.5592 17.0612 50.8026ZM16.6429 53.4162C16.102 53.7599 13.3038 55.5858 13.5562 57.1396C13.5706 57.2685 13.6211 57.2471 13.7365 57.2256C13.9312 57.1898 15.0418 56.1229 15.5467 55.4211C16.0587 54.7051 16.4337 53.9103 16.6429 53.4162Z" fill="black" stroke="black" stroke-width="0.35" stroke-miterlimit="10" stroke-linecap="round" stroke-linejoin="round"/>
<path d="M17.0612 50.8026L16.6645 51.4041C16.8809 51.49 17.3425 51.9125 17.3713 52.3278C17.6021 52.1989 18.7055 51.6905 18.7704 51.6834C18.9291 51.6547 19.0084 51.8194 19.0373 51.9841C19.0445 52.0056 17.8184 52.693 17.4074 52.9651C17.0972 53.9604 16.8088 54.4616 16.203 55.4498C15.5972 56.4451 14.2702 57.7841 13.7221 57.913C13.2461 58.0275 12.972 57.6838 12.9215 57.3903C12.5826 55.3066 15.0202 53.8816 16.7222 52.7073C16.7366 52.5641 16.6573 52.3708 16.6357 52.2633C16.6285 52.2347 16.4265 52.0056 16.1885 51.8982C16.0155 51.8122 15.9289 51.7621 15.9073 51.6475C15.9001 51.5473 16.0804 51.3611 16.3905 50.8957C16.6285 50.5448 16.8665 50.0794 16.8232 49.7787C16.7943 49.6498 16.6645 49.4779 16.5347 49.5066C16.3256 49.5495 16.1381 49.6641 15.8352 49.929C15.3664 50.3515 14.9625 50.7596 14.775 50.7811C14.5586 50.8098 14.4433 50.7382 14.4072 50.5377C14.3856 50.2799 15.251 49.614 15.4673 49.4278C15.8279 49.1271 16.376 48.8764 16.5131 48.8478C16.953 48.7619 17.3352 49.1557 17.3929 49.6211C17.429 50.0221 17.2271 50.5592 17.0612 50.8026ZM16.6429 53.4162C16.102 53.7599 13.3038 55.5858 13.5562 57.1396C13.5706 57.2685 13.6211 57.2471 13.7365 57.2256C13.9312 57.1898 15.0418 56.1229 15.5467 55.4211C16.0587 54.7051 16.4337 53.9103 16.6429 53.4162Z" fill="black" stroke="black" stroke-width="0.35" stroke-miterlimit="10" stroke-linecap="round" stroke-linejoin="round"/>
<path d="M22.8592 51.7188C22.513 52.1341 22.1741 52.3776 21.8423 52.442C21.5683 52.4993 21.3591 52.4635 21.2149 52.3346C21.1139 52.2344 21.049 52.1055 21.0202 51.948C20.9769 51.726 20.9985 51.4038 21.0418 51.1245L20.1475 52.2201C19.7581 52.6568 19.4119 52.9003 19.1234 52.9576C18.8349 53.0149 18.5681 52.8144 18.5248 52.6139C18.496 52.4563 18.6114 52.1126 18.871 51.5899C19.1306 51.0672 19.4407 50.5803 19.7797 50.1149C20.1042 49.6924 20.3278 49.406 20.4576 49.2484C20.912 48.7114 21.287 48.4035 21.5611 48.3534C21.763 48.3104 21.9577 48.3391 22.1308 48.4393C22.275 48.3247 22.4121 48.1242 22.4842 48.1099C22.6573 48.0741 22.7582 48.1529 22.8015 48.3534C22.8159 48.425 22.7871 48.5467 22.715 48.6756L22.4337 49.1554C22.1597 49.6136 21.9721 50.0003 21.8423 50.301C21.6404 50.7808 21.5683 51.1675 21.6332 51.4754C21.6692 51.6472 21.7341 51.7618 21.864 51.7403C22.1524 51.683 22.4626 51.4252 22.8015 50.967L23.3568 50.2008C23.3857 50.165 23.4145 50.1435 23.4434 50.1363C23.5588 50.1149 23.6381 50.1722 23.6669 50.3225C23.6886 50.4514 23.6669 50.5445 23.566 50.6949C23.126 51.3321 22.8953 51.6759 22.8592 51.7188ZM21.388 49.3773C21.3736 49.3129 21.3447 49.2843 21.2942 49.2986C21.0923 49.3415 20.7101 49.764 20.1692 50.5731C19.621 51.3823 19.3903 51.8262 19.484 51.905C19.5778 51.9838 19.9023 51.6687 20.4576 50.9813C21.013 50.2796 21.3231 49.8213 21.3808 49.628C21.4024 49.542 21.4096 49.4633 21.388 49.3773Z" fill="black" stroke="black" stroke-width="0.35" stroke-miterlimit="10" stroke-linecap="round" stroke-linejoin="round"/>
<path d="M22.8592 51.7188C22.513 52.1341 22.1741 52.3776 21.8423 52.442C21.5683 52.4993 21.3591 52.4635 21.2149 52.3346C21.1139 52.2344 21.049 52.1055 21.0202 51.948C20.9769 51.726 20.9985 51.4038 21.0418 51.1245L20.1475 52.2201C19.7581 52.6568 19.4119 52.9003 19.1234 52.9576C18.8349 53.0149 18.5681 52.8144 18.5248 52.6139C18.496 52.4563 18.6114 52.1126 18.871 51.5899C19.1306 51.0672 19.4407 50.5803 19.7797 50.1149C20.1042 49.6924 20.3278 49.406 20.4576 49.2484C20.912 48.7114 21.287 48.4035 21.5611 48.3534C21.763 48.3104 21.9577 48.3391 22.1308 48.4393C22.275 48.3247 22.4121 48.1242 22.4842 48.1099C22.6573 48.0741 22.7582 48.1529 22.8015 48.3534C22.8159 48.425 22.7871 48.5467 22.715 48.6756L22.4337 49.1554C22.1597 49.6136 21.9721 50.0003 21.8423 50.301C21.6404 50.7808 21.5683 51.1675 21.6332 51.4754C21.6692 51.6472 21.7341 51.7618 21.864 51.7403C22.1524 51.683 22.4626 51.4252 22.8015 50.967L23.3568 50.2008C23.3857 50.165 23.4145 50.1435 23.4434 50.1363C23.5588 50.1149 23.6381 50.1722 23.6669 50.3225C23.6886 50.4514 23.6669 50.5445 23.566 50.6949C23.126 51.3321 22.8953 51.6759 22.8592 51.7188ZM21.388 49.3773C21.3736 49.3129 21.3447 49.2843 21.2942 49.2986C21.0923 49.3415 20.7101 49.764 20.1692 50.5731C19.621 51.3823 19.3903 51.8262 19.484 51.905C19.5778 51.9838 19.9023 51.6687 20.4576 50.9813C21.013 50.2796 21.3231 49.8213 21.3808 49.628C21.4024 49.542 21.4096 49.4633 21.388 49.3773Z" fill="black" stroke="black" stroke-width="0.35" stroke-miterlimit="10" stroke-linecap="round" stroke-linejoin="round"/>
<path d="M26.3208 50.2942C25.8809 50.7668 25.5131 51.1248 25.2174 51.3682C24.7486 51.7334 24.3159 51.9626 23.9337 52.0342C23.5082 52.1201 23.0827 51.8838 22.9961 51.4255C22.9529 51.2036 23.0394 50.8169 23.263 50.2727C23.5082 49.6855 23.8039 49.1986 24.15 48.8048C24.4097 48.504 24.7126 48.232 25.0371 47.9957C25.3761 47.745 25.6357 47.6018 25.8232 47.566C26.1982 47.4944 26.2776 47.566 26.3208 47.7737C26.3425 47.8668 26.3136 47.9599 26.2271 48.0315C26.0828 48.1818 25.578 48.3322 25.1525 48.6831C24.9001 48.8979 24.6405 49.17 24.4097 49.4994C24.2077 49.7715 24.0419 50.0865 23.8904 50.4374C23.739 50.7882 23.6741 51.0245 23.7101 51.1821C23.7318 51.2966 23.8327 51.3539 23.9986 51.3324C24.3376 51.268 24.7558 51.0174 25.2318 50.5878C25.3905 50.4445 25.6285 50.2011 25.9747 49.8645C26.1478 49.6855 26.3857 49.4349 26.4867 49.4206C26.6237 49.392 26.7103 49.4349 26.7319 49.528C26.768 49.7428 26.6165 49.9791 26.3208 50.2942Z" fill="black" stroke="black" stroke-width="0.35" stroke-miterlimit="10" stroke-linecap="round" stroke-linejoin="round"/>
<path d="M26.3208 50.2942C25.8809 50.7668 25.5131 51.1248 25.2174 51.3682C24.7486 51.7334 24.3159 51.9626 23.9337 52.0342C23.5082 52.1201 23.0827 51.8838 22.9961 51.4255C22.9529 51.2036 23.0394 50.8169 23.263 50.2727C23.5082 49.6855 23.8039 49.1986 24.15 48.8048C24.4097 48.504 24.7126 48.232 25.0371 47.9957C25.3761 47.745 25.6357 47.6018 25.8232 47.566C26.1982 47.4944 26.2776 47.566 26.3208 47.7737C26.3425 47.8668 26.3136 47.9599 26.2271 48.0315C26.0828 48.1818 25.578 48.3322 25.1525 48.6831C24.9001 48.8979 24.6405 49.17 24.4097 49.4994C24.2077 49.7715 24.0419 50.0865 23.8904 50.4374C23.739 50.7882 23.6741 51.0245 23.7101 51.1821C23.7318 51.2966 23.8327 51.3539 23.9986 51.3324C24.3376 51.268 24.7558 51.0174 25.2318 50.5878C25.3905 50.4445 25.6285 50.2011 25.9747 49.8645C26.1478 49.6855 26.3857 49.4349 26.4867 49.4206C26.6237 49.392 26.7103 49.4349 26.7319 49.528C26.768 49.7428 26.6165 49.9791 26.3208 50.2942Z" fill="black" stroke="black" stroke-width="0.35" stroke-miterlimit="10" stroke-linecap="round" stroke-linejoin="round"/>
<path d="M26.6246 50.0365C26.6246 50.1367 26.4082 50.5592 26.4371 50.7239C26.4731 50.8957 26.4803 50.9459 26.6101 50.9244C26.8626 50.8743 27.1727 50.6451 27.8867 49.5567C28.1319 49.1271 28.341 48.6115 28.817 47.8454C29.1632 47.3083 29.632 46.9288 29.7473 46.9073C29.8627 46.8859 30.0142 46.9646 30.0358 47.0792C30.0935 47.3871 29.9565 47.8382 29.8699 48.2106L29.6752 49.0483C29.5959 49.3849 29.43 50.0938 29.4372 50.1296C29.4661 50.2656 29.5166 50.3229 29.6031 50.3086C29.7618 50.1797 29.9781 50.015 30.1512 49.7859L30.9013 48.8836C31.4205 48.2535 31.7739 47.2224 32.3797 47.1007C32.4951 47.0792 32.56 47.1222 32.5816 47.2367C32.6393 47.5446 32.4735 47.9599 32.3653 48.318L32.1056 49.1701C31.9975 49.4994 31.9109 49.8217 31.9181 49.8503C31.947 49.9864 31.9975 50.0436 32.0768 50.0293C32.1489 50.015 32.4518 49.7501 32.834 49.435C33.2091 49.1056 33.4254 48.9481 33.4543 48.9409C33.5552 48.9123 33.6202 48.9481 33.649 49.0913C33.6778 49.2488 33.4326 49.5711 32.899 50.0365C32.3581 50.5019 32.185 50.7167 31.8965 50.774C31.6224 50.8313 31.3917 50.5878 31.3268 50.373C31.2186 49.9792 31.4277 49.3849 31.6729 48.7261C31.3268 49.1557 31.0527 49.6069 30.4541 50.2585C29.9709 50.7812 29.6969 51.0031 29.4084 51.0533C29.1343 51.1106 28.8963 50.8671 28.8386 50.6523C28.7954 50.4733 28.9324 49.6713 28.9901 49.3634C29.0406 49.1199 29.1992 48.5328 29.3002 48.1533L28.3771 49.836C27.728 51.0175 27.1799 51.3683 26.5669 51.5044C26.163 51.5903 25.9034 51.3182 25.8601 51.0819C25.8024 50.7883 25.9611 49.8646 26.3649 49.7859C26.5597 49.7286 26.6318 49.9362 26.6246 50.0365Z" fill="black" stroke="black" stroke-width="0.35" stroke-miterlimit="10" stroke-linecap="round" stroke-linejoin="round"/>
<path d="M26.6246 50.0365C26.6246 50.1367 26.4082 50.5592 26.4371 50.7239C26.4731 50.8957 26.4803 50.9459 26.6101 50.9244C26.8626 50.8743 27.1727 50.6451 27.8867 49.5567C28.1319 49.1271 28.341 48.6115 28.817 47.8454C29.1632 47.3083 29.632 46.9288 29.7473 46.9073C29.8627 46.8859 30.0142 46.9646 30.0358 47.0792C30.0935 47.3871 29.9565 47.8382 29.8699 48.2106L29.6752 49.0483C29.5959 49.3849 29.43 50.0938 29.4372 50.1296C29.4661 50.2656 29.5166 50.3229 29.6031 50.3086C29.7618 50.1797 29.9781 50.015 30.1512 49.7859L30.9013 48.8836C31.4205 48.2535 31.7739 47.2224 32.3797 47.1007C32.4951 47.0792 32.56 47.1222 32.5816 47.2367C32.6393 47.5446 32.4735 47.9599 32.3653 48.318L32.1056 49.1701C31.9975 49.4994 31.9109 49.8217 31.9181 49.8503C31.947 49.9864 31.9975 50.0436 32.0768 50.0293C32.1489 50.015 32.4518 49.7501 32.834 49.435C33.2091 49.1056 33.4254 48.9481 33.4543 48.9409C33.5552 48.9123 33.6202 48.9481 33.649 49.0913C33.6778 49.2488 33.4326 49.5711 32.899 50.0365C32.3581 50.5019 32.185 50.7167 31.8965 50.774C31.6224 50.8313 31.3917 50.5878 31.3268 50.373C31.2186 49.9792 31.4277 49.3849 31.6729 48.7261C31.3268 49.1557 31.0527 49.6069 30.4541 50.2585C29.9709 50.7812 29.6969 51.0031 29.4084 51.0533C29.1343 51.1106 28.8963 50.8671 28.8386 50.6523C28.7954 50.4733 28.9324 49.6713 28.9901 49.3634C29.0406 49.1199 29.1992 48.5328 29.3002 48.1533L28.3771 49.836C27.728 51.0175 27.1799 51.3683 26.5669 51.5044C26.163 51.5903 25.9034 51.3182 25.8601 51.0819C25.8024 50.7883 25.9611 49.8646 26.3649 49.7859C26.5597 49.7286 26.6318 49.9362 26.6246 50.0365Z" fill="black" stroke="black" stroke-width="0.35" stroke-miterlimit="10" stroke-linecap="round" stroke-linejoin="round"/>
<path d="M37.6366 48.8192C37.2904 49.2345 36.9514 49.478 36.6197 49.5424C36.3456 49.5997 36.1365 49.5568 35.9922 49.435C35.8913 49.3348 35.8264 49.2059 35.7975 49.0484C35.7542 48.8264 35.7759 48.5042 35.8191 48.2178L34.9249 49.3133C34.5354 49.7501 34.1892 49.9936 33.9008 50.0508C33.6123 50.1081 33.3455 49.9076 33.3022 49.7071C33.2733 49.5496 33.3887 49.2059 33.6484 48.6832C33.908 48.1605 34.2181 47.6736 34.5571 47.2081C34.8816 46.7857 35.1052 46.4992 35.235 46.3417C35.6893 45.8047 36.0643 45.4968 36.3384 45.4466C36.5403 45.4037 36.7351 45.4323 36.9081 45.5326C37.0524 45.418 37.1894 45.2175 37.2615 45.2032C37.4346 45.1674 37.5356 45.2461 37.5789 45.4466C37.5933 45.5182 37.5644 45.64 37.4923 45.7689L37.211 46.2486C36.937 46.7069 36.7495 47.0936 36.6197 47.3943C36.4177 47.8741 36.3456 48.2607 36.4105 48.5686C36.4466 48.7405 36.5115 48.855 36.6413 48.8336C36.9298 48.7763 37.2399 48.5185 37.5789 48.0602L38.1342 47.2941C38.163 47.2582 38.1919 47.2368 38.2207 47.2296C38.3361 47.2081 38.4154 47.2654 38.4443 47.4158C38.4659 47.5447 38.4443 47.6378 38.3433 47.7881C37.9034 48.4397 37.6726 48.7834 37.6366 48.8192ZM36.1653 46.4849C36.1509 46.4205 36.122 46.3918 36.0716 46.4062C35.8696 46.4491 35.4874 46.8716 34.9465 47.6807C34.3984 48.4899 34.1676 48.9266 34.2614 49.0126C34.3551 49.0913 34.6797 48.7763 35.235 48.0889C35.7903 47.3871 36.1004 46.9289 36.1581 46.7355C36.1797 46.6496 36.187 46.5708 36.1653 46.4849Z" fill="black" stroke="black" stroke-width="0.35" stroke-miterlimit="10" stroke-linecap="round" stroke-linejoin="round"/>
<path d="M37.6366 48.8192C37.2904 49.2345 36.9514 49.478 36.6197 49.5424C36.3456 49.5997 36.1365 49.5568 35.9922 49.435C35.8913 49.3348 35.8264 49.2059 35.7975 49.0484C35.7542 48.8264 35.7759 48.5042 35.8191 48.2178L34.9249 49.3133C34.5354 49.7501 34.1892 49.9936 33.9008 50.0508C33.6123 50.1081 33.3455 49.9076 33.3022 49.7071C33.2733 49.5496 33.3887 49.2059 33.6484 48.6832C33.908 48.1605 34.2181 47.6736 34.5571 47.2081C34.8816 46.7857 35.1052 46.4992 35.235 46.3417C35.6893 45.8047 36.0643 45.4968 36.3384 45.4466C36.5403 45.4037 36.7351 45.4323 36.9081 45.5326C37.0524 45.418 37.1894 45.2175 37.2615 45.2032C37.4346 45.1674 37.5356 45.2461 37.5789 45.4466C37.5933 45.5182 37.5644 45.64 37.4923 45.7689L37.211 46.2486C36.937 46.7069 36.7495 47.0936 36.6197 47.3943C36.4177 47.8741 36.3456 48.2607 36.4105 48.5686C36.4466 48.7405 36.5115 48.855 36.6413 48.8336C36.9298 48.7763 37.2399 48.5185 37.5789 48.0602L38.1342 47.2941C38.163 47.2582 38.1919 47.2368 38.2207 47.2296C38.3361 47.2081 38.4154 47.2654 38.4443 47.4158C38.4659 47.5447 38.4443 47.6378 38.3433 47.7881C37.9034 48.4397 37.6726 48.7834 37.6366 48.8192ZM36.1653 46.4849C36.1509 46.4205 36.122 46.3918 36.0716 46.4062C35.8696 46.4491 35.4874 46.8716 34.9465 47.6807C34.3984 48.4899 34.1676 48.9266 34.2614 49.0126C34.3551 49.0913 34.6797 48.7763 35.235 48.0889C35.7903 47.3871 36.1004 46.9289 36.1581 46.7355C36.1797 46.6496 36.187 46.5708 36.1653 46.4849Z" fill="black" stroke="black" stroke-width="0.35" stroke-miterlimit="10" stroke-linecap="round" stroke-linejoin="round"/>
<path d="M41.8128 45.8401L40.4354 47.0789C40.6878 47.394 40.9979 47.6804 41.3513 47.9453C41.6253 48.1458 41.7624 48.2819 41.784 48.375C41.8128 48.5325 41.7696 48.6184 41.6398 48.6471C41.3946 48.6972 41.1277 48.6256 40.8392 48.4537C40.5075 48.2461 40.219 47.9382 39.9522 47.5658C38.9569 48.6041 38.4377 49.134 38.2357 49.1769C37.9472 49.2342 37.8823 49.0838 37.8174 48.7545C37.7669 48.511 37.9112 47.9596 38.2501 47.0789C38.6901 45.8974 39.267 44.7875 39.5411 44.3866C39.8224 43.9784 40.0099 43.7493 40.1613 43.7206C40.2983 43.692 40.3632 43.7922 40.3993 43.9927C40.4137 44.0429 40.3921 44.2792 40.0964 44.7517C39.6925 45.4034 39.2454 46.1337 38.791 47.3582L38.5675 48.0169C38.8415 47.8236 39.1805 47.5229 39.5771 47.1505C39.9017 46.8355 40.1541 46.5992 40.32 46.4416L41.885 44.9737C42.397 44.4868 42.6855 44.2362 42.7648 44.2219C42.9235 44.1932 43.01 44.229 43.0317 44.3221C43.0894 44.6372 42.8153 44.9451 41.8128 45.8401Z" fill="black" stroke="black" stroke-width="0.35" stroke-miterlimit="10" stroke-linecap="round" stroke-linejoin="round"/>
<path d="M41.8128 45.8401L40.4354 47.0789C40.6878 47.394 40.9979 47.6804 41.3513 47.9453C41.6253 48.1458 41.7624 48.2819 41.784 48.375C41.8128 48.5325 41.7696 48.6184 41.6398 48.6471C41.3946 48.6972 41.1277 48.6256 40.8392 48.4537C40.5075 48.2461 40.219 47.9382 39.9522 47.5658C38.9569 48.6041 38.4377 49.134 38.2357 49.1769C37.9472 49.2342 37.8823 49.0838 37.8174 48.7545C37.7669 48.511 37.9112 47.9596 38.2501 47.0789C38.6901 45.8974 39.267 44.7875 39.5411 44.3866C39.8224 43.9784 40.0099 43.7493 40.1613 43.7206C40.2983 43.692 40.3632 43.7922 40.3993 43.9927C40.4137 44.0429 40.3921 44.2792 40.0964 44.7517C39.6925 45.4034 39.2454 46.1337 38.791 47.3582L38.5675 48.0169C38.8415 47.8236 39.1805 47.5229 39.5771 47.1505C39.9017 46.8355 40.1541 46.5992 40.32 46.4416L41.885 44.9737C42.397 44.4868 42.6855 44.2362 42.7648 44.2219C42.9235 44.1932 43.01 44.229 43.0317 44.3221C43.0894 44.6372 42.8153 44.9451 41.8128 45.8401Z" fill="black" stroke="black" stroke-width="0.35" stroke-miterlimit="10" stroke-linecap="round" stroke-linejoin="round"/>
<path d="M46.1546 45.1241C45.9454 45.7542 45.8012 46.2483 45.6858 46.5992C45.4838 47.2078 45.2963 47.6947 45.1088 48.0957C44.8348 48.7187 44.4886 49.3058 44.0631 49.8357C43.4284 50.6592 42.7722 51.189 42.0798 51.3752C41.7553 51.4683 40.9187 51.9337 40.8466 51.6473C40.7889 51.4826 39.8369 50.4085 40.0965 50.3369C40.2191 50.3011 40.3345 50.3226 40.4211 50.4229C40.5076 50.516 40.7312 49.714 40.8682 49.6639C41.2865 49.5493 41.8635 49.5779 42.4548 48.776C43.1255 47.8737 44.7987 47.5444 44.9862 46.6779L44.9502 46.6493C44.5751 47.172 44.3299 47.4942 44.229 47.6016C43.9044 47.9597 43.5943 48.1745 43.2698 48.2747C43.0101 48.3463 42.8154 48.3392 42.6856 48.2318C42.6135 48.1458 42.5342 48.0169 42.4837 47.8451C42.3755 47.4584 42.426 46.9214 42.6423 46.2555C42.8299 45.6898 43.0751 45.1527 43.3924 44.6157C43.7313 44.0858 43.9621 43.8137 44.1208 43.7923C44.2867 43.7851 44.3804 43.8281 44.4165 43.9498C44.4453 44.0357 44.4093 44.136 44.3371 44.272L43.8539 45.0453C43.6664 45.389 43.4789 45.833 43.2914 46.3844C43.1111 46.9357 43.0462 47.2794 43.0895 47.4083C43.1328 47.573 43.1688 47.5802 43.3635 47.5157C43.4789 47.4799 43.6592 47.3295 43.9044 47.0574C43.9693 46.993 44.3876 46.4703 45.1593 45.475C45.5271 44.3937 45.9598 43.649 46.2483 43.5703C46.5007 43.4987 46.6161 43.6276 46.6666 43.8281C46.6954 43.9283 46.5224 44.3579 46.1546 45.1241Z" fill="black" stroke="black" stroke-width="0.35" stroke-miterlimit="10" stroke-linecap="round" stroke-linejoin="round"/>
<path d="M46.1546 45.1241C45.9454 45.7542 45.8012 46.2483 45.6858 46.5992C45.4838 47.2078 45.2963 47.6947 45.1088 48.0957C44.8348 48.7187 44.4886 49.3058 44.0631 49.8357C43.4284 50.6592 42.7722 51.189 42.0798 51.3752C41.7553 51.4683 40.9187 51.9337 40.8466 51.6473C40.7889 51.4826 39.8369 50.4085 40.0965 50.3369C40.2191 50.3011 40.3345 50.3226 40.4211 50.4229C40.5076 50.516 40.7312 49.714 40.8682 49.6639C41.2865 49.5493 41.8635 49.5779 42.4548 48.776C43.1255 47.8737 44.7987 47.5444 44.9862 46.6779L44.9502 46.6493C44.5751 47.172 44.3299 47.4942 44.229 47.6016C43.9044 47.9597 43.5943 48.1745 43.2698 48.2747C43.0101 48.3463 42.8154 48.3392 42.6856 48.2318C42.6135 48.1458 42.5342 48.0169 42.4837 47.8451C42.3755 47.4584 42.426 46.9214 42.6423 46.2555C42.8299 45.6898 43.0751 45.1527 43.3924 44.6157C43.7313 44.0858 43.9621 43.8137 44.1208 43.7923C44.2867 43.7851 44.3804 43.8281 44.4165 43.9498C44.4453 44.0357 44.4093 44.136 44.3371 44.272L43.8539 45.0453C43.6664 45.389 43.4789 45.833 43.2914 46.3844C43.1111 46.9357 43.0462 47.2794 43.0895 47.4083C43.1328 47.573 43.1688 47.5802 43.3635 47.5157C43.4789 47.4799 43.6592 47.3295 43.9044 47.0574C43.9693 46.993 44.3876 46.4703 45.1593 45.475C45.5271 44.3937 45.9598 43.649 46.2483 43.5703C46.5007 43.4987 46.6161 43.6276 46.6666 43.8281C46.6954 43.9283 46.5224 44.3579 46.1546 45.1241Z" fill="black" stroke="black" stroke-width="0.35" stroke-miterlimit="10" stroke-linecap="round" stroke-linejoin="round"/>
<path d="M48.0578 43.6277C48.0578 43.7494 47.9857 43.8711 47.8991 44.1003L47.7549 44.5442C47.6106 45.0311 47.4015 45.4464 47.3294 45.9692C47.2861 46.1339 47.2212 46.4776 47.2645 46.5993C47.3077 46.6924 47.3149 46.7353 47.4231 46.6709C47.4808 46.6351 48.0001 46.1052 48.1732 45.919C48.6419 45.3963 49.1828 44.845 49.3776 44.3652C49.4713 44.1719 49.5506 44 49.6228 43.821C49.6877 43.6563 49.7742 43.4845 49.8608 43.2983C49.9329 43.2267 50.005 43.1909 50.0843 43.1909C50.1709 43.1837 50.2718 43.241 50.3223 43.3413C50.4305 43.6778 50.2935 43.9857 50.1781 44.2721L50.0194 44.6301C49.8896 44.9882 49.5939 45.8761 49.6444 46.0837C49.6877 46.2413 49.7526 46.3558 49.8391 46.3343C50.0338 46.2627 50.4882 45.8904 50.6973 45.6971C50.7623 45.6183 50.8704 45.5109 50.9353 45.4393C51.1084 45.2531 51.2815 45.0669 51.3392 45.0669C51.469 45.0669 51.5916 45.0598 51.6061 45.2459C51.6205 45.5252 51.3608 45.7901 51.2959 45.8474L50.957 46.2126C50.6613 46.499 50.1997 46.8642 49.8824 46.9287C49.392 47.0218 49.1756 46.8141 49.0747 46.5205C49.0386 46.3988 48.9737 46.1195 48.9665 45.9405C48.7357 46.1697 48.6708 46.2842 48.4112 46.542C48.2597 46.7282 47.452 47.5087 47.2717 47.5445C46.9976 47.6018 46.6659 47.3798 46.5865 46.8213C46.4495 46.1983 47.0193 44.5299 47.1563 44.1862C47.2717 43.8855 47.488 43.42 47.7188 43.3842C47.8342 43.3556 48.0794 43.3985 48.0578 43.6277ZM49.291 42.5321C48.6996 42.661 47.9857 42.4032 47.928 42.1168C47.8847 41.8877 47.9784 41.8089 48.1804 41.7731C48.2309 41.7659 48.3102 41.8018 48.4184 41.859C48.6275 41.9521 48.9232 42.1097 49.2045 42.0309C49.6011 41.9235 49.9762 41.4724 50.2358 41.1501C50.3656 40.9783 50.4738 40.8494 50.5387 40.8351C50.7118 40.7993 50.8055 40.785 50.8416 41.0427C50.8632 41.2361 50.3151 42.3245 49.291 42.5321Z" fill="black" stroke="black" stroke-width="0.35" stroke-miterlimit="10" stroke-linecap="round" stroke-linejoin="round"/>
<path d="M48.0578 43.6277C48.0578 43.7494 47.9857 43.8711 47.8991 44.1003L47.7549 44.5442C47.6106 45.0311 47.4015 45.4464 47.3294 45.9692C47.2861 46.1339 47.2212 46.4776 47.2645 46.5993C47.3077 46.6924 47.3149 46.7353 47.4231 46.6709C47.4808 46.6351 48.0001 46.1052 48.1732 45.919C48.6419 45.3963 49.1828 44.845 49.3776 44.3652C49.4713 44.1719 49.5506 44 49.6228 43.821C49.6877 43.6563 49.7742 43.4845 49.8608 43.2983C49.9329 43.2267 50.005 43.1909 50.0843 43.1909C50.1709 43.1837 50.2718 43.241 50.3223 43.3413C50.4305 43.6778 50.2935 43.9857 50.1781 44.2721L50.0194 44.6301C49.8896 44.9882 49.5939 45.8761 49.6444 46.0837C49.6877 46.2413 49.7526 46.3558 49.8391 46.3343C50.0338 46.2627 50.4882 45.8904 50.6973 45.6971C50.7623 45.6183 50.8704 45.5109 50.9353 45.4393C51.1084 45.2531 51.2815 45.0669 51.3392 45.0669C51.469 45.0669 51.5916 45.0598 51.6061 45.2459C51.6205 45.5252 51.3608 45.7901 51.2959 45.8474L50.957 46.2126C50.6613 46.499 50.1997 46.8642 49.8824 46.9287C49.392 47.0218 49.1756 46.8141 49.0747 46.5205C49.0386 46.3988 48.9737 46.1195 48.9665 45.9405C48.7357 46.1697 48.6708 46.2842 48.4112 46.542C48.2597 46.7282 47.452 47.5087 47.2717 47.5445C46.9976 47.6018 46.6659 47.3798 46.5865 46.8213C46.4495 46.1983 47.0193 44.5299 47.1563 44.1862C47.2717 43.8855 47.488 43.42 47.7188 43.3842C47.8342 43.3556 48.0794 43.3985 48.0578 43.6277ZM49.291 42.5321C48.6996 42.661 47.9857 42.4032 47.928 42.1168C47.8847 41.8877 47.9784 41.8089 48.1804 41.7731C48.2309 41.7659 48.3102 41.8018 48.4184 41.859C48.6275 41.9521 48.9232 42.1097 49.2045 42.0309C49.6011 41.9235 49.9762 41.4724 50.2358 41.1501C50.3656 40.9783 50.4738 40.8494 50.5387 40.8351C50.7118 40.7993 50.8055 40.785 50.8416 41.0427C50.8632 41.2361 50.3151 42.3245 49.291 42.5321Z" fill="black" stroke="black" stroke-width="0.35" stroke-miterlimit="10" stroke-linecap="round" stroke-linejoin="round"/>
<path d="M52.9335 46.2412C52.6883 46.2914 52.4214 46.1124 52.3709 45.8689C52.3349 45.697 52.5657 45.4822 52.7892 45.4321C53.0416 45.382 53.359 45.5252 53.4095 45.7687C53.4527 45.9835 53.2003 46.1911 52.9335 46.2412ZM54.4408 40.2622C54.3614 40.742 54.2388 41.2146 54.1018 41.6657C53.871 42.4032 53.7196 42.8686 53.6474 43.0477C53.4455 43.5346 53.258 43.8067 53.0777 43.8425C52.919 43.8711 52.8325 43.7709 52.7964 43.6348C52.7748 43.5417 52.8613 43.2267 53.0344 42.7183C53.3229 41.8948 53.496 41.4222 53.5248 41.2933C53.5681 41.1645 53.6619 40.699 53.8133 39.897C53.9143 39.3815 54.0225 39.1022 54.1451 39.0664C54.2749 39.0091 54.484 39.0879 54.5201 39.3027C54.5489 39.4603 54.5201 39.7753 54.4408 40.2622Z" fill="black" stroke="black" stroke-width="0.35" stroke-miterlimit="10" stroke-linecap="round" stroke-linejoin="round"/>
<path d="M52.9335 46.2412C52.6883 46.2914 52.4214 46.1124 52.3709 45.8689C52.3349 45.697 52.5657 45.4822 52.7892 45.4321C53.0416 45.382 53.359 45.5252 53.4095 45.7687C53.4527 45.9835 53.2003 46.1911 52.9335 46.2412ZM54.4408 40.2622C54.3614 40.742 54.2388 41.2146 54.1018 41.6657C53.871 42.4032 53.7196 42.8686 53.6474 43.0477C53.4455 43.5346 53.258 43.8067 53.0777 43.8425C52.919 43.8711 52.8325 43.7709 52.7964 43.6348C52.7748 43.5417 52.8613 43.2267 53.0344 42.7183C53.3229 41.8948 53.496 41.4222 53.5248 41.2933C53.5681 41.1645 53.6619 40.699 53.8133 39.897C53.9143 39.3815 54.0225 39.1022 54.1451 39.0664C54.2749 39.0091 54.484 39.0879 54.5201 39.3027C54.5489 39.4603 54.5201 39.7753 54.4408 40.2622Z" fill="black" stroke="black" stroke-width="0.35" stroke-miterlimit="10" stroke-linecap="round" stroke-linejoin="round"/>
<path d="M16.2389 50.4012L15.8423 51.0027C16.0586 51.0886 16.5202 51.5111 16.549 51.9264C16.7798 51.7975 17.8832 51.2891 17.9481 51.282C18.1068 51.2533 18.1861 51.418 18.215 51.5827C18.2222 51.6042 16.9962 52.2916 16.5851 52.5637C16.275 53.559 15.9865 54.0603 15.3807 55.0484C14.7749 56.0437 13.4479 57.3827 12.8998 57.5116C12.4238 57.6262 12.1498 57.2825 12.0993 56.9889C11.7603 54.9052 14.1979 53.4803 15.9 52.3059C15.9144 52.1627 15.835 51.9694 15.8134 51.862C15.8062 51.8333 15.6043 51.6042 15.3663 51.4968C15.1932 51.4109 15.1066 51.3607 15.085 51.2462C15.0778 51.1459 15.2581 50.9598 15.5682 50.4943C15.8062 50.1435 16.0442 49.678 16.0009 49.3773C15.9721 49.2484 15.8423 49.0765 15.7124 49.1052C15.4961 49.1482 15.3086 49.2627 15.0129 49.5277C14.5441 49.9501 14.1402 50.3583 13.9527 50.3798C13.7364 50.4084 13.621 50.3368 13.5849 50.1363C13.5633 49.8785 14.4287 49.2126 14.6451 49.0264C15.0057 48.7257 15.5538 48.4751 15.6908 48.4464C16.1307 48.3605 16.513 48.7543 16.5707 49.2198C16.5995 49.6279 16.3976 50.1578 16.2389 50.4012ZM15.8134 53.022C15.2725 53.3657 12.4743 55.1916 12.7267 56.7454C12.7411 56.8743 12.7916 56.8528 12.907 56.8314C13.1017 56.7956 14.2124 55.7286 14.7172 55.0269C15.2292 54.3037 15.6043 53.5089 15.8134 53.022Z" fill="white"/>
<path d="M22.0301 51.3179C21.6839 51.7332 21.345 51.9767 21.0132 52.0411C20.7392 52.0984 20.53 52.0626 20.3858 51.9337C20.2848 51.8335 20.2199 51.7046 20.1911 51.5471C20.1478 51.3251 20.1694 51.0029 20.2127 50.7236L19.3184 51.8192C18.929 52.256 18.5828 52.4994 18.2943 52.5567C18.0058 52.614 17.739 52.4135 17.6957 52.213C17.6669 52.0555 17.7823 51.7118 18.0419 51.189C18.3015 50.6663 18.6117 50.1794 18.9506 49.714C19.2751 49.2915 19.4987 49.0051 19.6285 48.8476C20.0829 48.3105 20.4579 48.0026 20.732 47.9525C20.9339 47.9095 21.1286 47.9382 21.3017 48.0384C21.4459 47.9239 21.583 47.7234 21.6551 47.709C21.8282 47.6732 21.9291 47.752 21.9724 47.9525C21.9868 48.0241 21.958 48.1458 21.8859 48.2747L21.6046 48.7616C21.3306 49.2199 21.143 49.6066 21.0132 49.9073C20.8113 50.3871 20.7392 50.7737 20.8041 51.0816C20.8401 51.2535 20.905 51.3681 21.0349 51.3466C21.3233 51.2893 21.6335 51.0315 21.9724 50.5732L22.5277 49.8071C22.5566 49.7713 22.5854 49.7498 22.6143 49.7426C22.7297 49.7211 22.809 49.7784 22.8378 49.9288C22.8595 50.0577 22.8378 50.1508 22.7369 50.3011C22.297 50.9384 22.0662 51.2821 22.0301 51.3179ZM20.5661 48.9836C20.5517 48.9192 20.5228 48.8905 20.4723 48.9048C20.2704 48.9478 19.8882 49.3703 19.3473 50.1794C18.7992 50.9886 18.5684 51.4325 18.6621 51.5113C18.7559 51.59 19.0804 51.275 19.6357 50.5876C20.1911 49.8858 20.5012 49.4276 20.5589 49.2342C20.5733 49.1483 20.5805 49.0695 20.5661 48.9836Z" fill="white"/>
<path d="M25.4986 49.8928C25.0586 50.3654 24.6908 50.7234 24.3951 50.9669C23.9264 51.3321 23.4937 51.5612 23.1114 51.6328C22.6859 51.7187 22.2604 51.4824 22.1739 51.0242C22.1306 50.8022 22.2171 50.4155 22.4407 49.8713C22.6859 49.2842 22.9816 48.7973 23.3278 48.4034C23.5874 48.1027 23.8903 47.8306 24.2148 47.5943C24.5538 47.3437 24.8134 47.2005 25.0009 47.1647C25.376 47.0931 25.4553 47.1647 25.4986 47.3723C25.5202 47.4654 25.4914 47.5585 25.4048 47.6301C25.2606 47.7805 24.7557 47.9308 24.3302 48.2817C24.0778 48.4965 23.8182 48.7686 23.5874 49.098C23.3855 49.3701 23.2196 49.6852 23.0681 50.036C22.9167 50.3869 22.8518 50.6232 22.8879 50.7879C22.9095 50.9024 23.0105 50.9597 23.1763 50.9382C23.5153 50.8738 23.9336 50.6232 24.4096 50.1936C24.5682 50.0503 24.8062 49.8069 25.1524 49.4703C25.3255 49.2913 25.5635 49.0407 25.6644 49.0264C25.8015 48.9977 25.888 49.0407 25.9097 49.1338C25.9385 49.3486 25.787 49.5849 25.4986 49.8928Z" fill="white"/>
<path d="M25.8013 49.6351C25.8013 49.7354 25.585 50.1578 25.6138 50.3225C25.6499 50.4944 25.6571 50.5445 25.7869 50.523C26.0393 50.4729 26.3494 50.2438 27.0634 49.1554C27.3086 48.7257 27.5178 48.2102 27.9938 47.444C28.3399 46.907 28.8087 46.5275 28.9241 46.506C29.0395 46.4845 29.1909 46.5633 29.2126 46.6778C29.2703 46.9857 29.1332 47.4368 29.0467 47.8092L28.852 48.647C28.7726 48.9835 28.6068 49.6924 28.614 49.7282C28.6428 49.8642 28.6933 49.9215 28.7799 49.9072C28.9385 49.7783 29.1549 49.6136 29.328 49.3845L30.078 48.4823C30.5973 47.8522 30.9507 46.821 31.5565 46.6993C31.6718 46.6778 31.7368 46.7208 31.7584 46.8354C31.8161 47.1433 31.6502 47.5586 31.542 47.9166L31.2824 48.7687C31.1742 49.0981 31.0877 49.4203 31.0949 49.4489C31.1237 49.585 31.1742 49.6423 31.2536 49.628C31.3257 49.6136 31.6286 49.3487 32.0108 49.0336C32.3858 48.7042 32.6022 48.5467 32.631 48.5396C32.732 48.5109 32.7969 48.5467 32.8258 48.6899C32.8546 48.8475 32.6094 49.1697 32.0757 49.6351C31.5348 50.1005 31.3617 50.3154 31.0733 50.3726C30.7992 50.4299 30.5684 50.1865 30.5035 49.9717C30.3953 49.5778 30.6045 48.9835 30.8497 48.3247C30.5035 48.7544 30.2295 49.2055 29.6309 49.8571C29.1477 50.3798 28.8736 50.6018 28.5851 50.6519C28.3111 50.7092 28.0731 50.4657 28.0154 50.2509C27.9721 50.0719 28.1091 49.2699 28.1668 48.962C28.2173 48.7186 28.376 48.1314 28.477 47.7519L27.5538 49.4346C26.9048 50.6161 26.3566 50.967 25.7436 51.103C25.3398 51.1889 25.0801 50.9168 25.0369 50.6805C24.9792 50.387 25.1378 49.4633 25.5417 49.3845C25.7292 49.3344 25.8013 49.5349 25.8013 49.6351Z" fill="white"/>
<path d="M36.8143 48.4252C36.4681 48.8405 36.1292 49.084 35.7974 49.1484C35.5233 49.2057 35.3142 49.1627 35.17 49.041C35.069 48.9408 35.0041 48.8119 34.9752 48.6543C34.932 48.4324 34.9536 48.1101 34.9969 47.8237L34.1026 48.9193C33.7132 49.3561 33.367 49.5995 33.0785 49.6568C32.79 49.7141 32.5232 49.5136 32.4799 49.3131C32.4511 49.1556 32.5665 48.8119 32.8261 48.2891C33.0857 47.7664 33.3958 47.2795 33.7348 46.8141C34.0593 46.3916 34.2829 46.1052 34.4127 45.9477C34.8671 45.4106 35.2421 45.1027 35.5161 45.0526C35.7181 45.0096 35.9128 45.0383 36.0859 45.1385C36.2301 45.024 36.3671 44.8235 36.4393 44.8091C36.6124 44.7733 36.7133 44.8521 36.7566 45.0526C36.771 45.1242 36.7422 45.2459 36.67 45.3748L36.3888 45.8546C36.1147 46.3128 35.9272 46.6995 35.7974 47.0003C35.5955 47.48 35.5233 47.8667 35.5883 48.1746C35.6243 48.3464 35.6892 48.461 35.819 48.4395C36.1075 48.3822 36.4176 48.1245 36.7566 47.6662L37.3119 46.9C37.3408 46.8642 37.3696 46.8427 37.3985 46.8356C37.5138 46.8141 37.5932 46.8714 37.622 47.0217C37.6437 47.1506 37.622 47.2437 37.5211 47.3941C37.0811 48.0457 36.8503 48.3822 36.8143 48.4252ZM35.3431 46.0909C35.3286 46.0264 35.2998 45.9978 35.2493 46.0121C35.0474 46.0551 34.6651 46.4775 34.1242 47.2867C33.5761 48.0958 33.3453 48.5326 33.4391 48.6185C33.5329 48.6973 33.8574 48.3822 34.4127 47.6948C34.968 46.9931 35.2781 46.5348 35.3358 46.3415C35.3503 46.2484 35.3575 46.1768 35.3431 46.0909Z" fill="white"/>
<path d="M40.9828 45.4461L39.6053 46.6849C39.8577 46.9999 40.1678 47.2863 40.5212 47.5513C40.7953 47.7518 40.9323 47.8878 40.9539 47.9809C40.9828 48.1384 40.9395 48.2244 40.8097 48.253C40.5645 48.3031 40.2976 48.2315 40.0092 48.0597C39.6774 47.852 39.3889 47.5441 39.1221 47.1718C38.1268 48.2101 37.6076 48.7399 37.4056 48.7829C37.1172 48.8402 37.0523 48.6898 36.9874 48.3604C36.9369 48.117 37.0811 47.5656 37.4201 46.6849C37.86 45.5034 38.437 44.3935 38.711 43.9925C38.9923 43.5844 39.1798 43.3552 39.3312 43.3266C39.4683 43.2979 39.5332 43.3982 39.5692 43.5987C39.5837 43.6488 39.562 43.8851 39.2663 44.3577C38.8625 45.0093 38.4153 45.7397 37.961 46.9641L37.7374 47.6229C38.0115 47.4296 38.3504 47.1288 38.7471 46.7565C39.0716 46.4414 39.324 46.2051 39.4899 46.0476L41.0549 44.5797C41.5669 44.0928 41.8554 43.8421 41.9347 43.8278C42.0934 43.7992 42.18 43.835 42.2016 43.9281C42.2593 44.2431 41.9852 44.5439 40.9828 45.4461Z" fill="white"/>
<path d="M45.3244 44.7232C45.1153 45.3534 44.9711 45.8474 44.8557 46.1983C44.6537 46.8069 44.4662 47.2938 44.2787 47.6948C44.0047 48.3178 43.6585 48.905 43.233 49.4348C42.5983 50.2583 41.942 50.7882 41.2497 50.9743C40.9252 51.0674 40.5213 50.9314 40.442 50.645C40.3843 50.4803 40.4131 50.2225 40.6727 50.1509C40.7953 50.1151 40.9107 50.1366 40.9973 50.2368C41.0838 50.3299 41.1992 50.3585 41.3362 50.3156C41.7545 50.201 42.2594 49.7356 42.8508 48.9336C43.5215 48.0314 43.9542 47.1506 44.1489 46.2771L44.1128 46.2484C43.7378 46.7711 43.4926 47.0934 43.3916 47.2008C43.0671 47.5588 42.757 47.7736 42.4325 47.8738C42.1728 47.9455 41.9781 47.9383 41.8483 47.8309C41.7762 47.745 41.6968 47.6161 41.6464 47.4442C41.5382 47.0575 41.5887 46.5205 41.805 45.8546C41.9925 45.2889 42.2377 44.7519 42.5551 44.2148C42.894 43.685 43.1248 43.4129 43.2835 43.3914C43.4493 43.3842 43.5431 43.4272 43.5792 43.5489C43.608 43.6348 43.5719 43.7351 43.4998 43.8711L43.0166 44.6445C42.8291 44.9882 42.6416 45.4321 42.4541 45.9835C42.2738 46.5348 42.2089 46.8785 42.2522 47.0074C42.2954 47.1721 42.3315 47.1793 42.5262 47.1148C42.6416 47.079 42.8219 46.9287 43.0671 46.6566C43.132 46.5921 43.5503 46.0694 44.322 45.0741C44.6898 43.9929 45.1225 43.2482 45.411 43.1694C45.6634 43.0978 45.7788 43.2267 45.8293 43.4272C45.8653 43.5346 45.6923 43.9642 45.3244 44.7232Z" fill="white"/>
<path d="M47.2287 43.2336C47.2287 43.3554 47.1566 43.4771 47.07 43.7062L46.9258 44.1502C46.7815 44.6371 46.5724 45.0524 46.5003 45.5751C46.457 45.7398 46.3921 46.0835 46.4354 46.2052C46.4786 46.2983 46.4858 46.3413 46.594 46.2768C46.6517 46.241 47.171 45.7112 47.3441 45.525C47.8128 45.0023 48.3537 44.4509 48.5485 43.9712C48.6422 43.7778 48.7215 43.606 48.7937 43.427C48.8586 43.2623 48.9451 43.0904 49.0317 42.9043C49.1038 42.8326 49.1759 42.7968 49.2552 42.7968C49.3418 42.7897 49.4427 42.847 49.4932 42.9472C49.6014 43.2838 49.4644 43.5917 49.349 43.8781L49.1903 44.2361C49.0605 44.5941 48.7648 45.482 48.8153 45.6897C48.8586 45.8472 48.9235 45.9618 49.01 45.9403C49.2047 45.8687 49.6591 45.4964 49.8682 45.303C49.9331 45.2243 50.0413 45.1168 50.1062 45.0452C50.2793 44.8591 50.4524 44.6729 50.5101 44.6729C50.6399 44.6729 50.7625 44.6657 50.7769 44.8519C50.7914 45.1312 50.5317 45.3961 50.4668 45.4534L50.1279 45.8186C49.8322 46.105 49.3706 46.4702 49.0533 46.5346C48.5629 46.6277 48.3465 46.4201 48.2456 46.1265C48.2095 46.0047 48.1446 45.7255 48.1374 45.5465C47.9066 45.7756 47.8417 45.8902 47.5821 46.148C47.4306 46.3341 46.6229 47.1146 46.4426 47.1504C46.1685 47.2077 45.8368 46.9857 45.7574 46.4272C45.6204 45.8043 46.1902 44.1359 46.3272 43.7922C46.4426 43.4914 46.6589 43.026 46.8897 42.9902C47.0123 42.9544 47.2503 42.9973 47.2287 43.2336ZM48.4619 42.1381C47.8705 42.267 47.1566 42.0092 47.0989 41.7228C47.0556 41.4936 47.1493 41.4149 47.3513 41.3791C47.4018 41.3719 47.4811 41.4077 47.5893 41.465C47.7984 41.5581 48.0941 41.7156 48.3754 41.6368C48.772 41.5294 49.147 41.0783 49.4067 40.7561C49.5365 40.5843 49.6447 40.4554 49.7096 40.441C49.8827 40.4052 49.9764 40.3909 50.0125 40.6487C50.0413 40.842 49.4932 41.9233 48.4619 42.1381Z" fill="white"/>
<path d="M52.1034 45.8472C51.8582 45.8973 51.5913 45.7183 51.5409 45.4749C51.5048 45.303 51.7356 45.0882 51.9591 45.0381C52.2116 44.9879 52.5289 45.1312 52.5794 45.3746C52.6299 45.5894 52.3702 45.7899 52.1034 45.8472ZM53.6107 39.8682C53.5314 40.3479 53.4087 40.8205 53.2717 41.2716C53.0409 42.0092 52.8895 42.4746 52.8174 42.6536C52.6154 43.1405 52.4279 43.4126 52.2476 43.4484C52.089 43.4771 52.0024 43.3768 51.9664 43.2408C51.9447 43.1477 52.0313 42.8326 52.2044 42.3242C52.4928 41.5008 52.6659 41.0282 52.6948 40.8993C52.738 40.7704 52.8318 40.305 52.9832 39.503C53.0842 38.9875 53.1924 38.7082 53.315 38.6724C53.4448 38.6151 53.654 38.6939 53.69 38.9087C53.7189 39.0662 53.69 39.3741 53.6107 39.8682Z" fill="white"/>
</svg>
