<svg width="17" height="16" viewBox="0 0 17 16" fill="none" xmlns="http://www.w3.org/2000/svg">
<mask id="path-1-inside-1_876_637" fill="white">
<path d="M14.9731 14.6671V13.1856C14.9731 12.3998 14.6531 11.6461 14.0836 11.0905C13.514 10.5348 12.7414 10.2227 11.9359 10.2227H5.86144C5.05592 10.2227 4.28338 10.5348 3.7138 11.0905C3.14421 11.6461 2.82422 12.3998 2.82422 13.1856V14.6671"/>
</mask>
<path d="M3.7138 11.0905L4.76125 12.1642L4.76126 12.1642L3.7138 11.0905ZM16.4731 14.6671V13.1856H13.4731V14.6671H16.4731ZM16.4731 13.1856C16.4731 11.9898 15.9858 10.8507 15.131 10.0168L13.0361 12.1642C13.3204 12.4416 13.4731 12.8098 13.4731 13.1856H16.4731ZM15.131 10.0168C14.2774 9.18404 13.1274 8.72266 11.9359 8.72266V11.7227C12.3554 11.7227 12.7505 11.8856 13.0361 12.1642L15.131 10.0168ZM11.9359 8.72266H5.86144V11.7227H11.9359V8.72266ZM5.86144 8.72266C4.66992 8.72266 3.51993 9.18406 2.66634 10.0168L4.76126 12.1642C5.04684 11.8856 5.44192 11.7227 5.86144 11.7227V8.72266ZM2.66635 10.0168C1.81149 10.8507 1.32422 11.9899 1.32422 13.1856H4.32422C4.32422 12.8098 4.47692 12.4416 4.76125 12.1642L2.66635 10.0168ZM1.32422 13.1856V14.6671H4.32422V13.1856H1.32422Z" fill="white" mask="url(#path-1-inside-1_876_637)"/>
<path d="M11.9358 4.29646C11.9358 5.93285 10.576 7.25942 8.89855 7.25942C7.22114 7.25942 5.86133 5.93285 5.86133 4.29646C5.86133 2.66007 7.22114 1.3335 8.89855 1.3335C10.576 1.3335 11.9358 2.66007 11.9358 4.29646Z" fill="white"/>
</svg>
