<svg width="23" height="23" viewBox="0 0 23 23" fill="none" xmlns="http://www.w3.org/2000/svg">
<path d="M11.3903 15.8423C11.3903 18.5068 13.5504 20.6668 16.2149 20.6668C18.8794 20.6668 21.0395 18.5068 21.0395 15.8423C21.0395 13.1777 18.8794 11.0177 16.2149 11.0177C13.5504 11.0177 11.3903 13.1777 11.3903 15.8423ZM11.3903 15.8423C11.3903 14.7559 11.7494 13.7535 12.3552 12.9471V4.26332M11.3903 15.8423C11.3903 16.6387 11.5833 17.39 11.925 18.052C11.1121 18.7387 9.23457 19.2195 7.04823 19.2195C4.11724 19.2195 1.74121 18.3555 1.74121 17.2896V4.26332M12.3552 4.26332C12.3552 5.32913 9.97921 6.19315 7.04823 6.19315C4.11724 6.19315 1.74121 5.32913 1.74121 4.26332M12.3552 4.26332C12.3552 3.19751 9.97921 2.3335 7.04823 2.3335C4.11724 2.3335 1.74121 3.19751 1.74121 4.26332M1.74121 12.9475C1.74121 14.0133 4.11724 14.8774 7.04823 14.8774C9.16042 14.8774 10.9844 14.4287 11.8387 13.7791M12.3552 8.60543C12.3552 9.67124 9.97921 10.5353 7.04823 10.5353C4.11724 10.5353 1.74121 9.67124 1.74121 8.60543" stroke="black" stroke-width="1.8" stroke-linecap="round" stroke-linejoin="round"/>
<path d="M16.1934 18.7366C15.8861 18.7366 15.6166 18.6908 15.3848 18.5992C15.1584 18.5076 14.9671 18.3836 14.8108 18.2273C14.6598 18.0709 14.5439 17.8904 14.4631 17.6855C14.3876 17.4807 14.3499 17.2624 14.3499 17.0306C14.3499 16.9875 14.3499 16.9471 14.3499 16.9093C14.3553 16.8716 14.3607 16.8339 14.3661 16.7961H13.792V16.0684H14.6652L15.7083 15.5186H13.792V14.7909H16.6947C16.7216 14.7101 16.7351 14.6238 16.7351 14.5322C16.7351 14.3004 16.6731 14.1333 16.5491 14.0309C16.4306 13.9285 16.2608 13.8773 16.0398 13.8773C15.8457 13.8773 15.6597 13.9177 15.4819 13.9986C15.3094 14.074 15.1611 14.1818 15.0372 14.322L14.4388 13.57C14.6113 13.3706 14.8431 13.2089 15.1342 13.0849C15.4307 12.9609 15.7487 12.8989 16.0883 12.8989C16.3632 12.8989 16.6084 12.9394 16.824 13.0202C17.0397 13.1011 17.2202 13.2116 17.3658 13.3517C17.5167 13.4919 17.6299 13.6536 17.7054 13.8368C17.7862 14.0201 17.8266 14.2115 17.8266 14.4109C17.8266 14.4702 17.824 14.5322 17.8186 14.5969C17.8132 14.6616 17.8024 14.7262 17.7862 14.7909H18.3845V15.5186H17.4224L16.4198 16.0684H18.3845V16.7961H15.4657C15.4495 16.8608 15.4414 16.9282 15.4414 16.9983C15.4414 17.2624 15.5115 17.4591 15.6517 17.5885C15.7972 17.7179 15.9939 17.7826 16.2419 17.7826C16.4306 17.7826 16.6111 17.7394 16.7836 17.6532C16.9561 17.5669 17.1394 17.4187 17.3334 17.2085L17.9479 17.9604C17.7593 18.1868 17.5167 18.3728 17.2202 18.5183C16.9238 18.6639 16.5815 18.7366 16.1934 18.7366Z" fill="black"/>
</svg>
