<svg width="25" height="25" viewBox="0 0 25 25" fill="none" xmlns="http://www.w3.org/2000/svg">
<path d="M18.3242 20.5C18.3242 21.6 19.2242 22.5 20.3242 22.5C21.4242 22.5 22.3242 21.6 22.3242 20.5C22.3242 19.4 21.4242 18.5 20.3242 18.5C19.2242 18.5 18.3242 19.4 18.3242 20.5Z" fill="black"/>
<path d="M7.32422 20.5C7.32422 21.6 8.22422 22.5 9.32422 22.5C10.4242 22.5 11.3242 21.6 11.3242 20.5C11.3242 19.4 10.4242 18.5 9.32422 18.5C8.22422 18.5 7.32422 19.4 7.32422 20.5Z" fill="black"/>
<path d="M8.68645 15.4972L8.65595 15.4728L8.62345 15.4512C8.28541 15.2258 8.07052 14.8733 7.89787 14.2814L6.22422 6.40543V6.40518V6.40461V6.40405V6.40347V6.4029V6.40233V6.40175V6.40117V6.40058V6.4V6.30864L6.20586 6.21915L5.40586 2.31915L5.25834 1.6H4.52422H1.32422C1.27437 1.6 1.2475 1.5918 1.23792 1.58811C1.23746 1.58794 1.23703 1.58776 1.23662 1.5876C1.23645 1.58719 1.23628 1.58676 1.2361 1.58629C1.23242 1.57672 1.22422 1.54985 1.22422 1.5C1.22422 1.45015 1.23242 1.42328 1.2361 1.41371C1.23628 1.41324 1.23645 1.41281 1.23662 1.4124C1.23703 1.41224 1.23746 1.41206 1.23792 1.41189C1.2475 1.4082 1.27437 1.4 1.32422 1.4H5.32422C5.3925 1.4 5.41674 1.41906 5.41817 1.42018L5.41818 1.42019C5.41999 1.42161 5.42229 1.42369 5.42543 1.42891C5.42863 1.43421 5.43608 1.44844 5.4417 1.4765L6.2417 5.4765L6.3864 6.2H7.12422H23.3242C23.3509 6.2 23.3685 6.20232 23.3788 6.20433L23.4188 6.26433C23.4199 6.27786 23.421 6.2945 23.4219 6.31483C23.4232 6.34445 23.4237 6.37564 23.424 6.41195L21.8417 14.3235L21.8368 14.348L21.8333 14.3727C21.7723 14.7994 21.5292 15.1816 21.125 15.4512L21.0925 15.4728L21.062 15.4972C20.7671 15.7331 20.187 15.9 19.7242 15.9H9.92422C9.40828 15.9 9.0117 15.7574 8.68645 15.4972Z" stroke="black" stroke-width="1.8"/>
</svg>
