<svg width="23" height="23" viewBox="0 0 23 23" fill="none" xmlns="http://www.w3.org/2000/svg">
<g clip-path="url(#clip0_506_42196)">
<path d="M5.40717 9.66668H7.24047C9.07376 9.66668 9.99041 8.75004 9.99041 6.91674V5.08344C9.99041 3.25014 9.07376 2.3335 7.24047 2.3335H5.40717C3.57387 2.3335 2.65723 3.25014 2.65723 5.08344V6.91674C2.65723 8.75004 3.57387 9.66668 5.40717 9.66668Z" fill="white" stroke="white" stroke-width="1.7" stroke-miterlimit="10" stroke-linecap="round" stroke-linejoin="round"/>
<path d="M16.4052 9.66668H18.2385C20.0718 9.66668 20.9885 8.75004 20.9885 6.91674V5.08344C20.9885 3.25014 20.0718 2.3335 18.2385 2.3335H16.4052C14.5719 2.3335 13.6553 3.25014 13.6553 5.08344V6.91674C13.6553 8.75004 14.5719 9.66668 16.4052 9.66668Z" fill="white" stroke="white" stroke-width="1.7" stroke-miterlimit="10" stroke-linecap="round" stroke-linejoin="round"/>
<path d="M16.4052 20.6672H18.2385C20.0718 20.6672 20.9885 19.7505 20.9885 17.9172V16.0839C20.9885 14.2506 20.0718 13.334 18.2385 13.334H16.4052C14.5719 13.334 13.6553 14.2506 13.6553 16.0839V17.9172C13.6553 19.7505 14.5719 20.6672 16.4052 20.6672Z" fill="white" stroke="white" stroke-width="1.7" stroke-miterlimit="10" stroke-linecap="round" stroke-linejoin="round"/>
<path d="M5.40717 20.6672H7.24047C9.07376 20.6672 9.99041 19.7505 9.99041 17.9172V16.0839C9.99041 14.2506 9.07376 13.334 7.24047 13.334H5.40717C3.57387 13.334 2.65723 14.2506 2.65723 16.0839V17.9172C2.65723 19.7505 3.57387 20.6672 5.40717 20.6672Z" fill="white" stroke="white" stroke-width="1.7" stroke-miterlimit="10" stroke-linecap="round" stroke-linejoin="round"/>
</g>
<defs>
<clipPath id="clip0_506_42196">
<rect width="22" height="22" fill="white" transform="translate(0.824219 0.5)"/>
</clipPath>
</defs>
</svg>
