<svg width="25" height="25" viewBox="0 0 25 25" fill="none" xmlns="http://www.w3.org/2000/svg">
<path d="M15.5776 16.051L15.0525 15.5697L14.4634 15.9702C13.3629 16.7183 12.0349 17.1555 10.602 17.1555C6.80351 17.1555 3.72422 14.0763 3.72422 10.2778C3.72422 6.47929 6.80351 3.4 10.602 3.4C14.4005 3.4 17.4798 6.4793 17.4798 10.2778C17.4798 11.934 16.8954 13.4514 15.9208 14.6386L15.3801 15.2972L16.0083 15.8731L21.8557 21.2331C21.9418 21.312 21.9474 21.4457 21.8688 21.5315C21.7901 21.6174 21.6565 21.6233 21.5705 21.5445C21.5704 21.5445 21.5704 21.5445 21.5704 21.5444L15.5776 16.051Z" stroke="black" stroke-width="1.8"/>
</svg>
