<svg width="25" height="24" viewBox="0 0 25 24" fill="none" xmlns="http://www.w3.org/2000/svg">
<g clip-path="url(#clip0_361_15083)">
<path d="M19.3246 6.74539C19.3178 7.03225 19.2122 7.30798 19.0257 7.52598C18.8391 7.74398 18.583 7.89087 18.3006 7.94182C18.0182 7.99277 17.7269 7.94466 17.4759 7.80562C17.2249 7.66657 17.0296 7.44512 16.9231 7.17871C16.8165 6.9123 16.8052 6.61726 16.8911 6.34347C16.9769 6.06968 17.1547 5.83394 17.3943 5.67609C17.6339 5.51824 17.9207 5.44798 18.2061 5.47717C18.4916 5.50636 18.7582 5.63322 18.9609 5.8363C19.0794 5.95571 19.1726 6.09773 19.2351 6.2539C19.2976 6.41008 19.328 6.57722 19.3246 6.74539Z" fill="white"/>
<path d="M12.8236 7.9C13.7722 7.90031 14.6913 8.22951 15.4243 8.83149C16.1573 9.43347 16.659 10.271 16.8437 11.2014C17.0285 12.1317 16.885 13.0974 16.4376 13.9338C15.9902 14.7702 15.2666 15.4256 14.3902 15.7884C13.5138 16.1511 12.5387 16.1987 11.631 15.9231C10.7234 15.6475 9.93943 15.0658 9.41266 14.277C8.88588 13.4881 8.64891 12.5411 8.74212 11.5971C8.83532 10.6532 9.25294 9.77074 9.92382 9.10018C10.3047 8.7195 10.7568 8.41758 11.2543 8.21165C11.7519 8.00572 12.2851 7.89982 12.8236 7.9Z" stroke="white" stroke-width="1.8"/>
<path d="M16.8887 2.96203L16.9099 2.9633L16.9312 2.96357C17.6552 2.97258 18.372 3.10949 19.0484 3.36798L19.0484 3.368L19.0546 3.37033C19.5993 3.57386 20.0923 3.89498 20.4987 4.31083L20.5069 4.31921L20.5153 4.32738C20.9312 4.73141 21.2516 5.22331 21.4529 5.76709L21.4545 5.77113C21.7102 6.45174 21.8476 7.17108 21.8607 7.89803L21.8611 7.91682L21.8622 7.93557C21.9239 8.96751 21.9242 9.2671 21.9242 12C21.9242 14.7329 21.9239 15.0325 21.8622 16.0644L21.8611 16.0832L21.8607 16.102C21.8477 16.8275 21.7108 17.5454 21.456 18.2248C21.244 18.7712 20.9205 19.2674 20.5061 19.6819C20.0917 20.0963 19.5954 20.4198 19.049 20.6318C18.3696 20.8866 17.6517 21.0234 16.9262 21.0365L16.9074 21.0368L16.8887 21.038C15.8567 21.0997 15.5571 21.1 12.8242 21.1C10.0913 21.1 9.79173 21.0997 8.75979 21.038L8.74104 21.0368L8.72225 21.0365C7.9953 21.0234 7.27595 20.886 6.59536 20.6302L6.5913 20.6287C6.04753 20.4274 5.55563 20.107 5.15159 19.6911L5.1425 19.6817L5.13314 19.6726C4.71721 19.2686 4.39685 18.7767 4.19548 18.2329L4.19553 18.2329L4.1922 18.2242C3.93371 17.5478 3.7968 16.831 3.78779 16.107L3.78752 16.0857L3.78625 16.0644C3.72451 15.0325 3.72422 14.7329 3.72422 12C3.72422 9.2671 3.72451 8.96751 3.78625 7.93557L3.78752 7.91432L3.78779 7.89303C3.7968 7.16898 3.93371 6.45222 4.1922 5.77582L4.19224 5.77584L4.19548 5.76708C4.39685 5.22331 4.71721 4.73141 5.13314 4.32737L5.1425 4.31828L5.15159 4.30892C5.55563 3.89299 6.04753 3.57263 6.5913 3.37126L6.59132 3.37131L6.60004 3.36798C7.27644 3.10949 7.9932 2.97258 8.71725 2.96357L8.73853 2.9633L8.75979 2.96203C9.79173 2.90029 10.0913 2.9 12.8242 2.9C15.5571 2.9 15.8567 2.90029 16.8887 2.96203Z" stroke="white" stroke-width="1.8"/>
</g>
<defs>
<clipPath id="clip0_361_15083">
<rect width="24" height="24" fill="white" transform="translate(0.824219)"/>
</clipPath>
</defs>
</svg>
