<svg width="24" height="24" viewBox="0 0 24 24" fill="none" xmlns="http://www.w3.org/2000/svg">
<g id="book">
<g id="Group 49389">
<g id="Vector">
<mask id="path-1-inside-1_876_570" fill="white">
<path d="M21.2234 22.0002V19.7779C21.2234 18.5992 20.7434 17.4687 19.889 16.6352C19.0346 15.8017 17.8758 15.3335 16.6675 15.3335H7.55583C6.34755 15.3335 5.18875 15.8017 4.33437 16.6352C3.47998 17.4687 3 18.5992 3 19.7779V22.0002"/>
</mask>
<path d="M4.33437 16.6352L5.59131 17.9237L5.59132 17.9237L4.33437 16.6352ZM23.0234 22.0002V19.7779H19.4234V22.0002H23.0234ZM23.0234 19.7779C23.0234 18.1072 22.3426 16.5142 21.146 15.3468L18.632 17.9237C19.1441 18.4233 19.4234 19.0913 19.4234 19.7779H23.0234ZM21.146 15.3468C19.9508 14.1808 18.339 13.5335 16.6675 13.5335V17.1335C17.4126 17.1335 18.1185 17.4227 18.632 17.9237L21.146 15.3468ZM16.6675 13.5335H7.55583V17.1335H16.6675V13.5335ZM7.55583 13.5335C5.88435 13.5335 4.2726 14.1808 3.07742 15.3468L5.59132 17.9237C6.1049 17.4227 6.81075 17.1335 7.55583 17.1335V13.5335ZM3.07744 15.3468C1.88073 16.5142 1.2 18.1073 1.2 19.7779H4.8C4.8 19.0912 5.07924 18.4232 5.59131 17.9237L3.07744 15.3468ZM1.2 19.7779V22.0002H4.8V19.7779H1.2Z" fill="white" mask="url(#path-1-inside-1_876_570)"/>
</g>
<path id="Vector_2" d="M16.6673 6.44445C16.6673 8.89903 14.6276 10.8889 12.1115 10.8889C9.59538 10.8889 7.55566 8.89903 7.55566 6.44445C7.55566 3.98986 9.59538 2 12.1115 2C14.6276 2 16.6673 3.98986 16.6673 6.44445Z" fill="white"/>
</g>
</g>
</svg>
