<svg width="23" height="23" viewBox="0 0 23 23" fill="none" xmlns="http://www.w3.org/2000/svg">
<path d="M18.8747 19.9167C18.2806 19.9167 17.7913 19.4275 17.7913 18.8333C17.7913 18.2392 18.2806 17.75 18.8747 17.75C19.4688 17.75 19.958 18.2392 19.958 18.8333C19.958 19.4275 19.4688 19.9167 18.8747 19.9167ZM8.79134 19.9167C8.19722 19.9167 7.70801 19.4275 7.70801 18.8333C7.70801 18.2392 8.19722 17.75 8.79134 17.75C9.38546 17.75 9.87467 18.2392 9.87467 18.8333C9.87467 19.4275 9.38546 19.9167 8.79134 19.9167Z" fill="white" stroke="white" stroke-width="1.5"/>
<path d="M8.25373 14.1889L8.22323 14.1645L8.19073 14.1428C7.90239 13.9506 7.71263 13.6477 7.55679 13.1146L6.02484 5.90543V5.81698L6.00648 5.72748L5.27315 2.15248L5.12563 1.43333H4.3915H1.45817C1.4522 1.43333 1.4468 1.43318 1.44192 1.43291C1.44166 1.42804 1.4415 1.42263 1.4415 1.41667C1.4415 1.4107 1.44166 1.40529 1.44192 1.40042C1.4468 1.40016 1.4522 1.4 1.45817 1.4H5.12484C5.13938 1.4 5.15009 1.40128 5.15737 1.40264C5.1579 1.40475 5.15844 1.40715 5.15898 1.40984L5.89231 5.0765L6.03701 5.8H6.77484H21.6248C21.6274 5.8 21.6298 5.80003 21.6321 5.80008L21.6382 5.80918C21.6386 5.81639 21.6391 5.82445 21.6395 5.83345C21.6405 5.85746 21.641 5.88276 21.6412 5.91215L20.1923 13.1568L20.1874 13.1813L20.1839 13.2061C20.1313 13.5744 19.9215 13.9066 19.5673 14.1428L19.5348 14.1645L19.5043 14.1889C19.251 14.3915 18.7376 14.5417 18.3248 14.5417H9.3415C8.8839 14.5417 8.53732 14.4158 8.25373 14.1889Z" stroke="white" stroke-width="1.8"/>
</svg>
