<svg width="22" height="22" viewBox="0 0 22 22" fill="none" xmlns="http://www.w3.org/2000/svg">
<g clip-path="url(#clip0_524_41264)">
<path d="M4.70844 9.24986H6.45841C8.20837 9.24986 9.08336 8.37488 9.08336 6.62491V4.87495C9.08336 3.12498 8.20837 2.25 6.45841 2.25H4.70844C2.95848 2.25 2.0835 3.12498 2.0835 4.87495V6.62491C2.0835 8.37488 2.95848 9.24986 4.70844 9.24986Z" stroke="white" stroke-width="1.8" stroke-miterlimit="10" stroke-linecap="round" stroke-linejoin="round"/>
<path d="M15.207 9.24986H16.9569C18.7069 9.24986 19.5819 8.37488 19.5819 6.62491V4.87495C19.5819 3.12498 18.7069 2.25 16.9569 2.25H15.207C13.457 2.25 12.582 3.12498 12.582 4.87495V6.62491C12.582 8.37488 13.457 9.24986 15.207 9.24986Z" stroke="white" stroke-width="1.8" stroke-miterlimit="10" stroke-linecap="round" stroke-linejoin="round"/>
<path d="M15.207 19.7499H16.9569C18.7069 19.7499 19.5819 18.8749 19.5819 17.1249V15.3749C19.5819 13.625 18.7069 12.75 16.9569 12.75H15.207C13.457 12.75 12.582 13.625 12.582 15.3749V17.1249C12.582 18.8749 13.457 19.7499 15.207 19.7499Z" stroke="white" stroke-width="1.8" stroke-miterlimit="10" stroke-linecap="round" stroke-linejoin="round"/>
<path d="M4.70844 19.7499H6.45841C8.20837 19.7499 9.08336 18.8749 9.08336 17.1249V15.3749C9.08336 13.625 8.20837 12.75 6.45841 12.75H4.70844C2.95848 12.75 2.0835 13.625 2.0835 15.3749V17.1249C2.0835 18.8749 2.95848 19.7499 4.70844 19.7499Z" stroke="white" stroke-width="1.8" stroke-miterlimit="10" stroke-linecap="round" stroke-linejoin="round"/>
</g>
<defs>
<clipPath id="clip0_524_41264">
<rect width="21" height="21" fill="white" transform="translate(0.333496 0.5)"/>
</clipPath>
</defs>
</svg>
