<svg width="24" height="24" viewBox="0 0 24 24" fill="none" xmlns="http://www.w3.org/2000/svg">
<g id="Group 49366">
<path id="Vector" d="M14.7534 15.551L14.2283 15.0697L13.6392 15.4702C12.5387 16.2183 11.2107 16.6555 9.77779 16.6555C5.97929 16.6555 2.9 13.5763 2.9 9.77777C2.9 5.97929 5.97929 2.9 9.77779 2.9C13.5763 2.9 16.6556 5.9793 16.6556 9.77777C16.6556 11.434 16.0712 12.9514 15.0966 14.1386L14.5558 14.7972L15.1841 15.3731L21.0315 20.7331C21.1175 20.812 21.1232 20.9457 21.0446 21.0315C20.9659 21.1174 20.8323 21.1233 20.7463 21.0445C20.7462 21.0445 20.7462 21.0445 20.7462 21.0444L14.7534 15.551Z" stroke="white" stroke-width="1.8"/>
</g>
</svg>
