<svg width="22" height="23" viewBox="0 0 22 23" fill="none" xmlns="http://www.w3.org/2000/svg">
<mask id="path-1-inside-1_524_41258" fill="white">
<path d="M19.4548 20.6668V18.6297C19.4548 17.5493 19.0147 16.513 18.2316 15.7489C17.4484 14.9849 16.3861 14.5557 15.2785 14.5557H6.92618C5.81859 14.5557 4.75635 14.9849 3.97318 15.7489C3.18998 16.513 2.75 17.5493 2.75 18.6297V20.6668"/>
</mask>
<path d="M3.97318 15.7489L5.23011 17.0374L5.23013 17.0374L3.97318 15.7489ZM21.2548 20.6668V18.6297H17.6548V20.6668H21.2548ZM21.2548 18.6297C21.2548 17.0572 20.614 15.5584 19.4886 14.4605L16.9746 17.0374C17.4155 17.4675 17.6548 18.0413 17.6548 18.6297H21.2548ZM19.4886 14.4605C18.3646 13.364 16.8493 12.7557 15.2785 12.7557V16.3557C15.923 16.3557 16.5323 16.6058 16.9746 17.0374L19.4886 14.4605ZM15.2785 12.7557H6.92618V16.3557H15.2785V12.7557ZM6.92618 12.7557C5.35538 12.7557 3.84021 13.364 2.71623 14.4605L5.23013 17.0374C5.6725 16.6058 6.28179 16.3557 6.92618 16.3557V12.7557ZM2.71624 14.4605C1.59073 15.5585 0.95 17.0573 0.95 18.6297H4.55C4.55 18.0412 4.78924 17.4675 5.23011 17.0374L2.71624 14.4605ZM0.95 18.6297V20.6668H4.55V18.6297H0.95Z" fill="white" mask="url(#path-1-inside-1_524_41258)"/>
<path d="M15.2786 6.40709C15.2786 8.65712 13.4089 10.4812 11.1024 10.4812C8.79601 10.4812 6.92627 8.65712 6.92627 6.40709C6.92627 4.15704 8.79601 2.33301 11.1024 2.33301C13.4089 2.33301 15.2786 4.15704 15.2786 6.40709Z" fill="white"/>
</svg>
